<?xml version="1.0" encoding="UTF-8" standalone="no"?>
<!-- Created with Inkscape (http://www.inkscape.org/) -->

<svg
   xmlns:dc="http://purl.org/dc/elements/1.1/"
   xmlns:cc="http://creativecommons.org/ns#"
   xmlns:rdf="http://www.w3.org/1999/02/22-rdf-syntax-ns#"
   xmlns:svg="http://www.w3.org/2000/svg"
   xmlns="http://www.w3.org/2000/svg"
   xmlns:sodipodi="http://sodipodi.sourceforge.net/DTD/sodipodi-0.dtd"
   xmlns:inkscape="http://www.inkscape.org/namespaces/inkscape"
   width="240mm"
   height="120mm"
   viewBox="0 0 240 120"
   version="1.1"
   id="svg8"
   inkscape:version="0.92.5 (2060ec1f9f, 2020-04-08)"
   sodipodi:docname="infinite-non-deterministic-automaton.svg">
  <defs
     id="defs2" />
  <sodipodi:namedview
     id="base"
     pagecolor="#ffffff"
     bordercolor="#666666"
     borderopacity="1.0"
     inkscape:pageopacity="0.0"
     inkscape:pageshadow="2"
     inkscape:zoom="0.70312851"
     inkscape:cx="456.58068"
     inkscape:cy="10.965062"
     inkscape:document-units="mm"
     inkscape:current-layer="layer1"
     showgrid="false"
     showborder="true"
     width="200mm"
     showguides="true"
     inkscape:guide-bbox="true"
     inkscape:window-width="1848"
     inkscape:window-height="1016"
     inkscape:window-x="72"
     inkscape:window-y="27"
     inkscape:window-maximized="1">
    <inkscape:grid
       type="xygrid"
       id="grid815"
       units="mm"
       spacingx="10"
       spacingy="10"
       empspacing="4"
       dotted="false" />
  </sodipodi:namedview>
  <metadata
     id="metadata5">
    <rdf:RDF>
      <cc:Work
         rdf:about="">
        <dc:format>image/svg+xml</dc:format>
        <dc:type
           rdf:resource="http://purl.org/dc/dcmitype/StillImage" />
        <dc:title />
      </cc:Work>
    </rdf:RDF>
  </metadata>
  <g
     inkscape:label="Layer 1"
     inkscape:groupmode="layer"
     id="layer1"
     transform="translate(0,-177)">
    <circle
       style="opacity:1;fill:#1a1a1a;fill-opacity:0;stroke:#000000;stroke-width:0.26499999;stroke-miterlimit:4;stroke-dasharray:none;stroke-opacity:1"
       id="path8"
       cx="18.891705"
       cy="233.14072"
       r="5.587687" />
    <circle
       style="opacity:1;fill:#1a1a1a;fill-opacity:0;stroke:#000000;stroke-width:0.215693;stroke-miterlimit:4;stroke-dasharray:none;stroke-opacity:1"
       id="path8-62"
       cx="18.888714"
       cy="233.14374"
       r="4.5480189" />
    <path
       style="fill:none;stroke:#000000;stroke-width:0.26458332px;stroke-linecap:butt;stroke-linejoin:miter;stroke-opacity:1"
       d="m 21.286428,229.0165 c 0,-0.17739 0,-0.35478 0,-0.53216"
       id="path138"
       inkscape:connector-curvature="0" />
    <circle
       style="opacity:1;fill:#1a1a1a;fill-opacity:0;stroke:#000000;stroke-width:0.26499999;stroke-miterlimit:4;stroke-dasharray:none;stroke-opacity:1"
       id="path8-3"
       cx="64.457947"
       cy="196.22198"
       r="5.587687" />
    <circle
       style="opacity:1;fill:#1a1a1a;fill-opacity:0;stroke:#000000;stroke-width:0.215693;stroke-miterlimit:4;stroke-dasharray:none;stroke-opacity:1"
       id="path8-62-9"
       cx="64.457947"
       cy="196.08894"
       r="4.5480189" />
    <circle
       style="opacity:1;fill:#1a1a1a;fill-opacity:0;stroke:#000000;stroke-width:0.26499999;stroke-miterlimit:4;stroke-dasharray:none;stroke-opacity:1"
       id="path8-7"
       cx="90.932968"
       cy="192.89598"
       r="5.587687" />
    <path
       style="fill:none;stroke:#000000;stroke-width:0.26458332px;stroke-linecap:butt;stroke-linejoin:miter;stroke-opacity:1"
       d="m 68.8483,192.49687 c -0.0292,-1.88937 1.87073,-3.06265 3.459043,-3.59209 0.211978,-0.0707 0.417287,-0.33714 0.665197,-0.39912 1.40209,-0.35052 3.832542,-1.03747 5.321622,-0.6652 1.13973,0.28494 2.277891,0.63599 3.45907,0.93128 0.504389,0.1261 2.85528,1.53506 2.92689,1.46345 0.102809,-0.10281 -1.14735,-2.57778 -1.46344,-2.26169 -0.25555,0.25555 1.748539,1.71051 1.19737,2.26169 -0.91757,0.91756 -2.89587,0.7672 -3.858192,1.72952"
       id="path156"
       inkscape:connector-curvature="0" />
    <path
       style="fill:none;stroke:#000000;stroke-width:0.26458332px;stroke-linecap:butt;stroke-linejoin:miter;stroke-opacity:1"
       d="m 86.276628,196.75415 c -0.940496,0.028 -1.183486,1.05969 -1.995617,1.33041 -1.713809,0.57126 -3.76651,1.11326 -5.72077,1.3304 -0.628889,0.0699 -2.038499,0.44419 -2.660809,0.13304 -0.337368,-0.16868 -0.807945,-1.20221 -1.330402,-1.46344 -0.546616,-0.27331 -2.148538,-0.95117 -2.527766,-1.33041 -0.510905,-0.5109 -0.434768,1.69388 -0.133037,1.99561 0.0444,0.0443 0.161086,-0.077 0.133037,-0.13304 -0.16002,-0.32004 -1.197364,-2.21655 -1.197364,-2.39473 0,-0.45925 2.178799,-0.6652 2.527766,-0.6652 0.310428,0 0.931275,-0.31042 0.931275,0 0,0.10158 -0.398158,0.26561 -0.399118,0.26608"
       id="path158"
       inkscape:connector-curvature="0" />
    <text
       xml:space="preserve"
       style="font-style:normal;font-weight:normal;font-size:5.64444447px;line-height:1.25;font-family:sans-serif;letter-spacing:0px;word-spacing:0px;fill:#000000;fill-opacity:1;stroke:none;stroke-width:0.26458332"
       x="74.302994"
       y="186.24397"
       id="text212"><tspan
         sodipodi:role="line"
         id="tspan210"
         x="74.302994"
         y="186.24397"
         style="stroke-width:0.26458332">$0$</tspan></text>
    <text
       xml:space="preserve"
       style="font-style:normal;font-weight:normal;font-size:5.64444447px;line-height:1.25;font-family:sans-serif;letter-spacing:0px;word-spacing:0px;fill:#000000;fill-opacity:1;stroke:none;stroke-width:0.26458332"
       x="78.028084"
       y="205.26872"
       id="text216"><tspan
         sodipodi:role="line"
         id="tspan214"
         x="78.028084"
         y="205.26872"
         style="stroke-width:0.26458332">$1$</tspan></text>
    <circle
       style="opacity:1;fill:#1a1a1a;fill-opacity:0;stroke:#000000;stroke-width:0.26499999;stroke-miterlimit:4;stroke-dasharray:none;stroke-opacity:1"
       id="path8-6"
       cx="65.189682"
       cy="227.28696"
       r="5.587687" />
    <circle
       style="opacity:1;fill:#1a1a1a;fill-opacity:0;stroke:#000000;stroke-width:0.215693;stroke-miterlimit:4;stroke-dasharray:none;stroke-opacity:1"
       id="path8-62-1"
       cx="65.189682"
       cy="227.15393"
       r="4.5480189" />
    <circle
       style="opacity:1;fill:#1a1a1a;fill-opacity:0;stroke:#000000;stroke-width:0.26499999;stroke-miterlimit:4;stroke-dasharray:none;stroke-opacity:1"
       id="path8-367"
       cx="89.402992"
       cy="214.24902"
       r="5.587687" />
    <circle
       style="opacity:1;fill:#1a1a1a;fill-opacity:0;stroke:#000000;stroke-width:0.26499999;stroke-miterlimit:4;stroke-dasharray:none;stroke-opacity:1"
       id="path8-56"
       cx="123.46127"
       cy="230.746"
       r="5.587687" />
    <circle
       style="opacity:1;fill:#1a1a1a;fill-opacity:0;stroke:#000000;stroke-width:0.26499999;stroke-miterlimit:4;stroke-dasharray:none;stroke-opacity:1"
       id="path8-29"
       cx="87.274353"
       cy="233.67288"
       r="5.587687" />
    <circle
       style="opacity:1;fill:#1a1a1a;fill-opacity:0;stroke:#000000;stroke-width:0.26499999;stroke-miterlimit:4;stroke-dasharray:none;stroke-opacity:1"
       id="path8-1"
       cx="89.669075"
       cy="260.547"
       r="5.587687" />
    <circle
       style="opacity:1;fill:#1a1a1a;fill-opacity:0;stroke:#000000;stroke-width:0.26499999;stroke-miterlimit:4;stroke-dasharray:none;stroke-opacity:1"
       id="path8-27"
       cx="110.68941"
       cy="258.15228"
       r="5.587687" />
    <circle
       style="opacity:1;fill:#1a1a1a;fill-opacity:0;stroke:#000000;stroke-width:0.26499999;stroke-miterlimit:4;stroke-dasharray:none;stroke-opacity:1"
       id="path8-360"
       cx="135.43489"
       cy="278.90652"
       r="5.587687" />
    <circle
       style="opacity:1;fill:#1a1a1a;fill-opacity:0;stroke:#000000;stroke-width:0.26499999;stroke-miterlimit:4;stroke-dasharray:none;stroke-opacity:1"
       id="path8-626"
       cx="111.75374"
       cy="282.89774"
       r="5.587687" />
    <circle
       style="opacity:1;fill:#1a1a1a;fill-opacity:0;stroke:#000000;stroke-width:0.26499999;stroke-miterlimit:4;stroke-dasharray:none;stroke-opacity:1"
       id="path8-18"
       cx="87.274353"
       cy="279.97086"
       r="5.587687" />
    <circle
       style="opacity:1;fill:#1a1a1a;fill-opacity:0;stroke:#000000;stroke-width:0.26499999;stroke-miterlimit:4;stroke-dasharray:none;stroke-opacity:1"
       id="path8-6-7"
       cx="63.593201"
       cy="265.60251"
       r="5.587687" />
    <circle
       style="opacity:1;fill:#1a1a1a;fill-opacity:0;stroke:#000000;stroke-width:0.215693;stroke-miterlimit:4;stroke-dasharray:none;stroke-opacity:1"
       id="path8-62-1-9"
       cx="63.593201"
       cy="265.46948"
       r="4.5480189" />
    <path
       style="fill:none;stroke:#000000;stroke-width:0.26458332px;stroke-linecap:butt;stroke-linejoin:miter;stroke-opacity:1"
       d="m 21.286428,229.0165 c 0.53216,0.22172 1.034739,0.53555 1.59648,0.66518 0.114206,0.0264 0.254956,-0.89791 0.266081,-0.93129 0.268997,-0.80699 0.818867,-1.84571 1.330401,-2.52776 0.665801,-0.88773 1.175479,-1.87044 1.729522,-2.79384 0.539669,-0.89945 1.537175,-1.67021 2.261683,-2.39473 0.678,-0.678 1.252731,-1.49189 1.995604,-2.12864 1.149757,-0.98551 2.498243,-1.65142 3.725124,-2.52776 0.871498,-0.6225 1.65649,-1.37327 2.527763,-1.9956 0.575628,-0.41117 1.313529,-0.6068 1.862561,-1.06433 1.807229,-1.50602 3.79163,-2.94588 5.853769,-4.12424 1.136705,-0.64955 2.321864,-1.21275 3.459043,-1.86256 0.674373,-0.38536 1.324158,-0.99468 1.995604,-1.3304 1.70398,-0.85199 3.542853,-1.79238 5.055526,-2.92689 0.509529,-0.38215 1.067247,-0.84454 1.59648,-1.19736 0.351679,-0.23445 0.926213,-0.39405 1.197364,-0.6652 0.200681,-0.20068 0.479864,-0.74595 0.79824,-1.06432 0.07951,-0.0795 0.266081,0.1438 0.266081,-0.13304 0,-0.10622 -0.898004,0.38803 -0.931283,0.39912 -0.599779,0.19993 -1.292749,0.38029 -1.862561,0.6652 -0.636982,0.31849 -1.064321,0.49096 -1.064321,0.39912 0,-0.0277 1.4371,-0.55888 1.995601,-0.79824 0.08862,-0.038 1.596483,-0.74534 1.596483,-0.6652 0,0.0943 -0.348705,0.53916 -0.399122,0.6652 -0.325913,0.81479 -1.330401,3.36582 -1.330401,4.12425"
       id="path477"
       inkscape:connector-curvature="0" />
    <path
       style="fill:none;stroke:#000000;stroke-width:0.26458332px;stroke-linecap:butt;stroke-linejoin:miter;stroke-opacity:1"
       d="m 26.075872,233.27376 c 2.96567,-2.26862 6.932481,-3.79704 10.643214,-5.18857 1.223018,-0.45863 2.343486,-1.18028 3.592084,-1.59648 2.364933,-0.78831 4.987134,-1.58508 7.450249,-1.9956 1.848551,-0.30809 3.36922,0.5097 5.055526,0.93128 0.356743,0.0892 0.609226,-0.028 0.931283,0.13304 0.200657,0.10033 0.438927,-0.19066 0.665199,-0.26608 0.54804,-0.18268 1.173565,-0.0808 1.729523,-0.26608 0.201242,-0.0671 0.912852,0.15147 1.064321,0 0.01712,-0.0171 -1.400702,-0.59994 -1.596483,-0.6652 -0.394557,-0.13152 -0.683059,-0.17077 -1.06432,-0.26608 -0.06833,-0.0171 -0.399122,-0.30923 -0.399122,-0.26608 0,0.46256 3.76809,1.24032 3.991205,1.46344 0.07478,0.0748 -0.650885,0.78631 -0.665199,0.79824 -0.321397,0.26783 -0.729628,0.41418 -1.064321,0.6652 -0.612735,0.45955 -1.225452,0.90566 -1.862563,1.3304"
       id="path479"
       inkscape:connector-curvature="0" />
    <path
       style="fill:none;stroke:#000000;stroke-width:0.26458332px;stroke-linecap:butt;stroke-linejoin:miter;stroke-opacity:1"
       d="m 23.81419,238.99449 c 1.465802,1.96275 3.0792,3.91536 5.188567,5.3216 1.017227,0.67816 2.215634,1.35785 3.326003,1.86257 0.794721,0.36123 1.644348,0.5868 2.394722,1.06432 3.663048,2.33103 7.602636,4.08849 11.574494,5.85376 1.833743,0.815 3.84796,1.12574 5.587688,1.99561 2.563572,1.28178 3.440105,1.42556 4.789445,4.12424 0.123754,0.24751 0.532162,0.53117 0.532162,0.6652 0,0.13304 -0.266081,0 -0.399121,0 -0.919885,0 -1.334548,-0.40119 -2.128642,-0.79824 -0.03984,-0.0199 -0.665202,-0.0863 -0.665202,-0.13304 0,-0.0448 0.861065,0.35699 0.931283,0.39912 0.581845,0.34911 2.641568,1.59648 3.059922,1.59648 0.399801,0 1.431012,-3.95877 0.798243,-3.326"
       id="path481"
       inkscape:connector-curvature="0" />
    <path
       style="fill:none;stroke:#000000;stroke-width:0.26458332px;stroke-linecap:butt;stroke-linejoin:miter;stroke-opacity:1"
       d="m 59.335913,278.7735 -0.399119,-0.53217 c -2.039303,0.43991 -0.228363,2.64195 0.798241,2.12865 0.338285,-0.16914 1.007097,-0.68379 1.197361,-1.06432 0.03966,-0.0793 -0.06271,-0.20337 0,-0.26608 0.1352,-0.1352 0.442138,-0.71221 0.266081,-1.06432 -0.897301,-1.79461 -3.152701,0.57242 -2.527763,1.19736"
       id="path483"
       inkscape:connector-curvature="0" />
    <path
       style="fill:none;stroke:#000000;stroke-width:0.26458332px;stroke-linecap:butt;stroke-linejoin:miter;stroke-opacity:1"
       d="m 59.601994,285.82462 c -1.289019,0.85725 -0.03803,1.96393 1.06432,1.59649 0.703631,-0.23455 1.065493,-1.94216 0.133041,-2.12865 -0.570635,-0.11412 -0.948238,0 -1.463442,0"
       id="path485"
       inkscape:connector-curvature="0" />
    <path
       style="fill:none;stroke:#000000;stroke-width:0.26458332px;stroke-linecap:butt;stroke-linejoin:miter;stroke-opacity:1"
       d="m 60.134155,289.28367 c -1.659678,0.13232 -0.827219,2.94137 0.532159,2.26168 1.260266,-0.63013 0.412533,-2.41913 -1.330401,-2.12864"
       id="path487"
       inkscape:connector-curvature="0" />
    <path
       style="fill:none;stroke:#000000;stroke-width:0.26458332px;stroke-linecap:butt;stroke-linejoin:miter;stroke-opacity:1"
       d="m 70.245207,222.76359 c -0.32526,-1.26576 0.843135,-2.18102 1.596483,-3.05993 1.509538,-1.76113 5.081201,-3.24587 7.317208,-3.9912 0.564996,-0.18833 1.236064,-0.28543 1.729523,-0.53216 0.167965,-0.084 0.670523,0.12771 0.79824,0 0.03234,-0.0323 0.532162,-0.42383 0.532162,-0.39912 0,0.18284 -0.354775,0.0887 -0.532162,0.13304 -0.595757,0.14894 -1.443202,0.53216 -1.995601,0.53216 -0.110869,0 0.177387,-0.13304 0.266078,-0.13304 1.045731,0 2.4408,-0.48868 3.326005,-0.93128 0.08869,-0.0444 0.195961,-0.20316 0.266081,-0.13305 0.06867,0.0687 -0.77548,0.64244 -0.798242,0.66521 -0.382911,0.38291 -1.629693,2.89367 -1.463442,3.05992"
       id="path489"
       inkscape:connector-curvature="0" />
    <path
       style="fill:none;stroke:#000000;stroke-width:0.26458332px;stroke-linecap:butt;stroke-linejoin:miter;stroke-opacity:1"
       d="m 116.80926,231.4112 c 0.17739,0.13304 0.39913,0.22173 0.53217,0.39912 0.10137,0.13517 -2.63001,1.38922 -2.92689,1.46344 -2.70599,0.6765 -5.53298,0.92034 -8.24849,1.46344 -0.91911,0.18382 -2.16391,0.0163 -3.05992,-0.13304 -1.58514,-0.26419 -3.892258,0.13304 -5.587689,0.13304 -0.439835,0 -3.423129,0.0359 -3.459043,0 -0.220232,-0.22023 1.880954,-1.40612 1.995601,-1.46344 0.05609,-0.0281 0.08869,-0.17739 0.13304,-0.13304 0.05067,0.0507 -0.627705,0.38412 -0.665199,0.39912 -0.346702,0.13868 -2.261685,0.79915 -2.261685,1.3304 0,0.89735 2.615496,2.21638 3.192965,2.79384"
       id="path495"
       inkscape:connector-curvature="0" />
    <path
       style="fill:none;stroke:#000000;stroke-width:0.26458332px;stroke-linecap:butt;stroke-linejoin:miter;stroke-opacity:1"
       d="m 80.356259,233.4068 c -2.415011,-0.54192 -4.888478,-0.50344 -7.317208,-1.19736 -0.172641,-0.0493 -1.862563,-0.53409 -1.862563,-0.6652 0,-0.111 0.390972,0.5213 0.399121,0.53216 0.575934,0.76791 1.093658,1.55668 1.596483,2.39472 0.04218,0.0703 0.293078,0.6382 0.399118,0.53216 0.316349,-0.31635 -2.527763,-3.18643 -2.527763,-3.85816 0,-0.28613 1.175872,-0.37981 1.330402,-0.39912 0.669896,-0.0837 1.324004,-0.33196 1.995604,-0.39912 0.535347,-0.0535 1.059466,-0.13304 1.596482,-0.13304"
       id="path497"
       inkscape:connector-curvature="0" />
    <path
       style="fill:none;stroke:#000000;stroke-width:0.26458332px;stroke-linecap:butt;stroke-linejoin:miter;stroke-opacity:1"
       d="m 67.983525,263.2078 c 2.581749,-4.52734 7.547618,-4.78945 12.239694,-4.78945 0.5325,0 3.592086,0.18829 3.592086,-0.13304 0,-0.0887 -0.186751,0.0397 -0.266081,0 -0.769789,-0.38489 -1.409991,-0.91346 -2.261684,-1.19736 -0.07951,-0.0265 -0.266079,0.0688 -0.266079,-0.13304 0,-0.20904 2.087259,0.35774 2.261682,0.53216 0.353145,0.35314 -0.903295,1.91394 -1.06432,2.12864"
       id="path499"
       inkscape:connector-curvature="0" />
    <path
       style="fill:none;stroke:#000000;stroke-width:0.26458332px;stroke-linecap:butt;stroke-linejoin:miter;stroke-opacity:1"
       d="m 95.256759,258.95051 c -0.08825,-0.62481 0.272931,-0.67205 0.665199,-1.06432 2.17265,-2.17265 4.575122,-1.8755 7.184172,-2.52776 0.0732,-0.0183 2.52776,-0.24821 2.52776,-0.13304 0,0.22289 -1.59133,-0.47689 -1.72952,-0.53216 -0.1249,-0.05 -1.19736,-0.0957 -1.19736,-0.26609 0,-0.0609 0.49847,0.24362 0.53216,0.26609 0.43463,0.28975 1.63846,0.4411 1.86256,0.6652 0.22974,0.22974 -1.26068,2.4897 -1.46344,2.79384"
       id="path501"
       inkscape:connector-curvature="0" />
    <path
       style="fill:none;stroke:#000000;stroke-width:0.26458332px;stroke-linecap:butt;stroke-linejoin:miter;stroke-opacity:1"
       d="m 131.57672,278.90654 c -3.04699,1.72969 -6.35484,3.45904 -9.97801,3.45904 -0.86494,0 -2.69444,-0.13304 -2.92688,-0.13304 -0.35478,0 -1.06432,0.35477 -1.06432,0 0,-0.0377 1.15549,-0.62333 1.46344,-0.93128 0.0488,-0.0488 0.93128,-0.68018 0.93128,-0.6652 0,0.12612 -2.5682,1.71604 -2.12864,1.86256 0.2754,0.0918 0.79834,-0.0333 1.06432,0 0.36287,0.0454 0.70955,0.17739 1.06432,0.26608 0.49264,0.12316 0.9816,0.23851 1.46344,0.39912"
       id="path507"
       inkscape:connector-curvature="0" />
    <path
       style="fill:none;stroke:#000000;stroke-width:0.26458332px;stroke-linecap:butt;stroke-linejoin:miter;stroke-opacity:1"
       d="m 105.63389,283.29686 c -0.22173,0.0444 -0.43907,0.13304 -0.6652,0.13304 -0.84674,0 -2.0199,-0.1653 -2.92688,-0.26608 -1.58392,-0.17599 -3.245487,0.0427 -4.78945,-0.26608 -1.255821,-0.25116 -2.575885,-0.53216 -3.858165,-0.53216 -0.04435,0 -0.01984,0.0934 0,0.13304 0.22116,0.44232 1.995604,1.25428 1.995604,1.46344 0,0.22174 -0.354774,-0.26608 -0.532161,-0.39912 -0.462008,-0.3465 -1.113753,-0.73111 -1.463443,-1.19736 -0.802034,-1.06938 0.48781,-0.88693 1.064321,-1.46344 0.303461,-0.30346 0.616479,-0.61648 0.931283,-0.93128"
       id="path509"
       inkscape:connector-curvature="0" />
    <path
       style="fill:none;stroke:#000000;stroke-width:0.26458332px;stroke-linecap:butt;stroke-linejoin:miter;stroke-opacity:1"
       d="m 80.755381,277.70918 c -0.45651,0.72835 0.665199,0.59631 0.665199,0.79824 0,0.12861 -0.663384,-0.26155 -0.665199,-0.26609 -0.06588,-0.1647 0.15866,-0.45283 0,-0.53215 -0.241274,-0.12064 -0.530141,0.16282 -0.798243,0.13303 -0.460537,-0.0512 -1.668177,-0.83408 -2.128642,-1.06432 -1.168752,-0.58437 -2.270609,-1.31405 -3.459043,-1.86256 -0.79851,-0.36854 -2.427864,-0.50991 -3.059925,-0.93128 -0.246703,-0.16447 -0.728652,-0.19649 -0.93128,-0.39912 -0.08682,-0.0868 -0.704408,-1.02511 -0.798243,-0.93128 -0.278225,0.27823 1.105501,2.25693 0.665202,1.59648 -0.50424,-0.75636 -1.173472,-1.38724 -1.729523,-2.12864 -0.217064,-0.28942 -0.402312,-0.53535 -0.665199,-0.79824 -0.08869,-0.0887 -0.354775,-0.17739 -0.266081,-0.26608 0.108773,-0.10878 4.43974,0.98069 4.656404,1.19736"
       id="path511"
       inkscape:connector-curvature="0" />
    <path
       style="fill:none;stroke:#000000;stroke-width:0.26458332px;stroke-linecap:butt;stroke-linejoin:miter;stroke-opacity:1"
       d="m 94.591557,212.78558 c 3.468433,0.25246 7.079493,-0.45618 10.510173,0.26607 2.29213,0.48256 4.51031,1.34382 6.65201,2.26169 0.85327,0.36568 2.01729,1.14848 2.92688,1.3304 0.62206,0.12441 0.18574,-0.17321 0.79824,0.13304 0.36888,0.18444 0.58668,0.70155 0.93128,0.93128 1.52063,1.01375 3.42816,2.99815 4.25729,4.65641 0.12689,0.25377 0,0.90734 0,1.19736 0,0.10417 0.0664,0.59882 0,0.6652 -0.30788,0.30788 -1.23031,-2.12865 -1.72952,-2.12865 -0.001,0 0.4318,0.43181 0.53216,0.53217 0.3639,0.3639 1.83993,2.01823 2.12864,1.72952 0.22652,-0.22652 -0.4687,-1.60871 -0.53216,-1.86256 -0.086,-0.3438 0,-0.83443 0,-1.19737"
       id="path513"
       inkscape:connector-curvature="0" />
    <path
       style="fill:none;stroke:#000000;stroke-width:0.26458332px;stroke-linecap:butt;stroke-linejoin:miter;stroke-opacity:1"
       d="m 116.54318,257.08795 c 0.39912,0.84259 0.67215,1.75744 1.19736,2.52776 0.2899,0.42518 2.73391,1.21673 3.32601,1.46344 2.43423,1.01427 5.16858,2.13052 7.18417,3.85817 2.00208,1.71607 3.06502,2.80403 4.25728,5.18856 0.21448,0.42896 0.48664,0.61793 0.66521,1.06433 0.0754,0.18855 0.51787,1.0786 0.26607,1.3304 -0.0288,0.0288 -0.49016,0.021 -0.53215,0 -0.20744,-0.10372 -0.26839,-0.60214 -0.39913,-0.79824 -0.38852,-0.5828 -1.3317,-1.06693 -1.59648,-1.59649 -0.0397,-0.0795 0.0876,-0.26607 -0.13304,-0.26607 -0.34363,0 0.42877,0.68496 0.79824,0.93128 0.89234,0.59489 1.69994,1.71473 2.52777,2.12864 1.28086,0.64043 0.93128,-1.93604 0.93128,-2.52776 0,-1.28709 -0.2058,-0.66079 2.12864,0.79824"
       id="path515"
       inkscape:connector-curvature="0" />
    <text
       xml:space="preserve"
       style="font-style:normal;font-weight:normal;font-size:5.64444447px;line-height:1.25;font-family:sans-serif;letter-spacing:0px;word-spacing:0px;fill:#000000;fill-opacity:1;stroke:none;stroke-width:0.26458332"
       x="74.236412"
       y="215.04726"
       id="text519"><tspan
         sodipodi:role="line"
         id="tspan517"
         x="74.236412"
         y="215.04726"
         style="stroke-width:0.26458332">$0$</tspan></text>
    <text
       xml:space="preserve"
       style="font-style:normal;font-weight:normal;font-size:5.64444447px;line-height:1.25;font-family:sans-serif;letter-spacing:0px;word-spacing:0px;fill:#000000;fill-opacity:1;stroke:none;stroke-width:0.26458332"
       x="110.68941"
       y="210.92302"
       id="text523"><tspan
         sodipodi:role="line"
         id="tspan521"
         x="110.68941"
         y="210.92302"
         style="stroke-width:0.26458332">$0$</tspan></text>
    <text
       xml:space="preserve"
       style="font-style:normal;font-weight:normal;font-size:5.64444447px;line-height:1.25;font-family:sans-serif;letter-spacing:0px;word-spacing:0px;fill:#000000;fill-opacity:1;stroke:none;stroke-width:0.26458332"
       x="103.23917"
       y="230.87904"
       id="text527"><tspan
         sodipodi:role="line"
         id="tspan525"
         x="103.23917"
         y="230.87904"
         style="stroke-width:0.26458332">$1$</tspan></text>
    <text
       xml:space="preserve"
       style="font-style:normal;font-weight:normal;font-size:5.64444447px;line-height:1.25;font-family:sans-serif;letter-spacing:0px;word-spacing:0px;fill:#000000;fill-opacity:1;stroke:none;stroke-width:0.26458332"
       x="75.965927"
       y="230.21384"
       id="text531"><tspan
         sodipodi:role="line"
         id="tspan529"
         x="75.965927"
         y="230.21384"
         style="stroke-width:0.26458332">$1$</tspan></text>
    <text
       xml:space="preserve"
       style="font-style:normal;font-weight:normal;font-size:5.64444447px;line-height:1.25;font-family:sans-serif;letter-spacing:0px;word-spacing:0px;fill:#000000;fill-opacity:1;stroke:none;stroke-width:0.26458332"
       x="72.107773"
       y="256.02362"
       id="text535"><tspan
         sodipodi:role="line"
         id="tspan533"
         x="72.107773"
         y="256.02362"
         style="stroke-width:0.26458332">$0$</tspan></text>
    <text
       xml:space="preserve"
       style="font-style:normal;font-weight:normal;font-size:5.64444447px;line-height:1.25;font-family:sans-serif;letter-spacing:0px;word-spacing:0px;fill:#000000;fill-opacity:1;stroke:none;stroke-width:0.26458332"
       x="97.651482"
       y="251.6333"
       id="text539"><tspan
         sodipodi:role="line"
         id="tspan537"
         x="97.651482"
         y="251.6333"
         style="stroke-width:0.26458332">$0$</tspan></text>
    <text
       xml:space="preserve"
       style="font-style:normal;font-weight:normal;font-size:5.64444447px;line-height:1.25;font-family:sans-serif;letter-spacing:0px;word-spacing:0px;fill:#000000;fill-opacity:1;stroke:none;stroke-width:0.26458332"
       x="125.72295"
       y="260.547"
       id="text543"><tspan
         sodipodi:role="line"
         id="tspan541"
         x="125.72295"
         y="260.547"
         style="stroke-width:0.26458332">$0$</tspan></text>
    <text
       xml:space="preserve"
       style="font-style:normal;font-weight:normal;font-size:5.64444447px;line-height:1.25;font-family:sans-serif;letter-spacing:0px;word-spacing:0px;fill:#000000;fill-opacity:1;stroke:none;stroke-width:0.26458332"
       x="121.33263"
       y="278.64047"
       id="text547"><tspan
         sodipodi:role="line"
         id="tspan545"
         x="121.33263"
         y="278.64047"
         style="stroke-width:0.26458332">$1$</tspan></text>
    <text
       xml:space="preserve"
       style="font-style:normal;font-weight:normal;font-size:5.64444447px;line-height:1.25;font-family:sans-serif;letter-spacing:0px;word-spacing:0px;fill:#000000;fill-opacity:1;stroke:none;stroke-width:0.26458332"
       x="98.848839"
       y="279.43869"
       id="text551"><tspan
         sodipodi:role="line"
         id="tspan549"
         x="98.848839"
         y="279.43869"
         style="stroke-width:0.26458332">$1$</tspan></text>
    <text
       xml:space="preserve"
       style="font-style:normal;font-weight:normal;font-size:5.64444447px;line-height:1.25;font-family:sans-serif;letter-spacing:0px;word-spacing:0px;fill:#000000;fill-opacity:1;stroke:none;stroke-width:0.26458332"
       x="75.699852"
       y="272.5206"
       id="text555"><tspan
         sodipodi:role="line"
         id="tspan553"
         x="75.699852"
         y="272.5206"
         style="stroke-width:0.26458332">$1$</tspan></text>
    <text
       xml:space="preserve"
       style="font-style:normal;font-weight:normal;font-size:5.64444447px;line-height:1.25;font-family:sans-serif;letter-spacing:0px;word-spacing:0px;fill:#000000;fill-opacity:1;stroke:none;stroke-width:0.26458332"
       x="129.29858"
       y="202.63176"
       id="text285"><tspan
         sodipodi:role="line"
         id="tspan283"
         x="129.29858"
         y="202.63176"
         style="stroke-width:0.26458332">unspecified transitions</tspan><tspan
         sodipodi:role="line"
         x="129.29858"
         y="209.68732"
         style="stroke-width:0.26458332"
         id="tspan289">lead to an error state</tspan></text>
    <text
       xml:space="preserve"
       style="font-style:normal;font-weight:normal;font-size:5.64444447px;line-height:1.25;font-family:sans-serif;letter-spacing:0px;word-spacing:0px;fill:#000000;fill-opacity:1;stroke:none;stroke-width:0.26458332"
       x="24.887173"
       y="215.7724"
       id="text182"><tspan
         sodipodi:role="line"
         id="tspan180"
         x="24.887173"
         y="215.7724"
         style="stroke-width:0.26458332">$\epsilon$</tspan></text>
    <text
       xml:space="preserve"
       style="font-style:normal;font-weight:normal;font-size:5.64444447px;line-height:1.25;font-family:sans-serif;letter-spacing:0px;word-spacing:0px;fill:#000000;fill-opacity:1;stroke:none;stroke-width:0.26458332"
       x="24.134584"
       y="236.84489"
       id="text182-2"><tspan
         sodipodi:role="line"
         id="tspan180-0"
         x="24.134584"
         y="236.84489"
         style="stroke-width:0.26458332">$\epsilon$</tspan></text>
    <text
       xml:space="preserve"
       style="font-style:normal;font-weight:normal;font-size:5.64444447px;line-height:1.25;font-family:sans-serif;letter-spacing:0px;word-spacing:0px;fill:#000000;fill-opacity:1;stroke:none;stroke-width:0.26458332"
       x="28.273821"
       y="253.77815"
       id="text182-23"><tspan
         sodipodi:role="line"
         id="tspan180-75"
         x="28.273821"
         y="253.77815"
         style="stroke-width:0.26458332">$\epsilon$</tspan></text>
  </g>
</svg>
