<?xml version="1.0" encoding="UTF-8" standalone="no"?>
<!-- Created with Inkscape (http://www.inkscape.org/) -->

<svg
   xmlns:dc="http://purl.org/dc/elements/1.1/"
   xmlns:cc="http://creativecommons.org/ns#"
   xmlns:rdf="http://www.w3.org/1999/02/22-rdf-syntax-ns#"
   xmlns:svg="http://www.w3.org/2000/svg"
   xmlns="http://www.w3.org/2000/svg"
   xmlns:sodipodi="http://sodipodi.sourceforge.net/DTD/sodipodi-0.dtd"
   xmlns:inkscape="http://www.inkscape.org/namespaces/inkscape"
   width="240mm"
   height="120mm"
   viewBox="0 0 240 120"
   version="1.1"
   id="svg8"
   inkscape:version="0.92.5 (2060ec1f9f, 2020-04-08)"
   sodipodi:docname="infinite-non-deterministic-automaton-to-recognize-0...01...1.svg">
  <defs
     id="defs2" />
  <sodipodi:namedview
     id="base"
     pagecolor="#ffffff"
     bordercolor="#666666"
     borderopacity="1.0"
     inkscape:pageopacity="0.0"
     inkscape:pageshadow="2"
     inkscape:zoom="0.99437388"
     inkscape:cx="525.63418"
     inkscape:cy="182.72055"
     inkscape:document-units="mm"
     inkscape:current-layer="layer1"
     showgrid="false"
     showborder="true"
     width="200mm"
     showguides="true"
     inkscape:guide-bbox="true"
     inkscape:window-width="1848"
     inkscape:window-height="1016"
     inkscape:window-x="72"
     inkscape:window-y="27"
     inkscape:window-maximized="1">
    <inkscape:grid
       type="xygrid"
       id="grid815"
       units="mm"
       spacingx="10"
       spacingy="10"
       empspacing="4"
       dotted="false" />
  </sodipodi:namedview>
  <metadata
     id="metadata5">
    <rdf:RDF>
      <cc:Work
         rdf:about="">
        <dc:format>image/svg+xml</dc:format>
        <dc:type
           rdf:resource="http://purl.org/dc/dcmitype/StillImage" />
        <dc:title />
      </cc:Work>
    </rdf:RDF>
  </metadata>
  <g
     inkscape:label="Layer 1"
     inkscape:groupmode="layer"
     id="layer1"
     transform="translate(0,-177)">
    <circle
       style="opacity:1;fill:#1a1a1a;fill-opacity:0;stroke:#000000;stroke-width:0.26499999;stroke-miterlimit:4;stroke-dasharray:none;stroke-opacity:1"
       id="path8"
       cx="34.436543"
       cy="231.2758"
       r="5.587687" />
    <circle
       style="opacity:1;fill:#1a1a1a;fill-opacity:0;stroke:#000000;stroke-width:0.215693;stroke-miterlimit:4;stroke-dasharray:none;stroke-opacity:1"
       id="path8-62"
       cx="34.433552"
       cy="231.27882"
       r="4.5480189" />
    <path
       style="fill:none;stroke:#000000;stroke-width:0.26458332px;stroke-linecap:butt;stroke-linejoin:miter;stroke-opacity:1"
       d="m 36.831267,227.1516 c 0,-0.17739 0,-0.35478 0,-0.53216"
       id="path138"
       inkscape:connector-curvature="0" />
    <circle
       style="opacity:1;fill:#1a1a1a;fill-opacity:0;stroke:#000000;stroke-width:0.26499999;stroke-miterlimit:4;stroke-dasharray:none;stroke-opacity:1"
       id="path8-3"
       cx="80.002785"
       cy="194.35707"
       r="5.587687" />
    <circle
       style="opacity:1;fill:#1a1a1a;fill-opacity:0;stroke:#000000;stroke-width:0.215693;stroke-miterlimit:4;stroke-dasharray:none;stroke-opacity:1"
       id="path8-62-9"
       cx="80.002785"
       cy="194.22403"
       r="4.5480189" />
    <circle
       style="opacity:1;fill:#1a1a1a;fill-opacity:0;stroke:#000000;stroke-width:0.26499999;stroke-miterlimit:4;stroke-dasharray:none;stroke-opacity:1"
       id="path8-7"
       cx="106.47781"
       cy="191.03107"
       r="5.587687" />
    <path
       style="fill:none;stroke:#000000;stroke-width:0.26458332px;stroke-linecap:butt;stroke-linejoin:miter;stroke-opacity:1"
       d="m 84.39314,190.63197 c -0.0292,-1.88937 1.870729,-3.06265 3.459041,-3.59209 0.211979,-0.0707 0.417288,-0.33714 0.665197,-0.39912 1.40209,-0.35052 3.832542,-1.03747 5.321623,-0.6652 1.139729,0.28494 2.27789,0.63599 3.459069,0.93128 0.504389,0.1261 2.85528,1.53506 2.92689,1.46345 0.10281,-0.10281 -1.14735,-2.57778 -1.463439,-2.26169 -0.255551,0.25555 1.748539,1.71051 1.197371,2.26169 -0.917572,0.91756 -2.895872,0.7672 -3.858193,1.72952"
       id="path156"
       inkscape:connector-curvature="0" />
    <text
       xml:space="preserve"
       style="font-style:normal;font-weight:normal;font-size:5.64444447px;line-height:1.25;font-family:sans-serif;letter-spacing:0px;word-spacing:0px;fill:#000000;fill-opacity:1;stroke:none;stroke-width:0.26458332"
       x="89.847832"
       y="184.37906"
       id="text212"><tspan
         sodipodi:role="line"
         id="tspan210"
         x="89.847832"
         y="184.37906"
         style="stroke-width:0.26458332">$0$</tspan></text>
    <text
       xml:space="preserve"
       style="font-style:normal;font-weight:normal;font-size:5.64444447px;line-height:1.25;font-family:sans-serif;letter-spacing:0px;word-spacing:0px;fill:#000000;fill-opacity:1;stroke:none;stroke-width:0.26458332"
       x="110.60207"
       y="184.24602"
       id="text216"><tspan
         sodipodi:role="line"
         id="tspan214"
         x="110.60207"
         y="184.24602"
         style="stroke-width:0.26458332">$1$</tspan></text>
    <circle
       style="opacity:1;fill:#1a1a1a;fill-opacity:0;stroke:#000000;stroke-width:0.26499999;stroke-miterlimit:4;stroke-dasharray:none;stroke-opacity:1"
       id="path8-6"
       cx="80.73452"
       cy="225.42204"
       r="5.587687" />
    <circle
       style="opacity:1;fill:#1a1a1a;fill-opacity:0;stroke:#000000;stroke-width:0.215693;stroke-miterlimit:4;stroke-dasharray:none;stroke-opacity:1"
       id="path8-62-1"
       cx="80.73452"
       cy="225.28902"
       r="4.5480189" />
    <circle
       style="opacity:1;fill:#1a1a1a;fill-opacity:0;stroke:#000000;stroke-width:0.26499999;stroke-miterlimit:4;stroke-dasharray:none;stroke-opacity:1"
       id="path8-367"
       cx="104.94783"
       cy="212.38411"
       r="5.587687" />
    <circle
       style="opacity:1;fill:#1a1a1a;fill-opacity:0;stroke:#000000;stroke-width:0.26499999;stroke-miterlimit:4;stroke-dasharray:none;stroke-opacity:1"
       id="path8-56"
       cx="135.81316"
       cy="218.23788"
       r="5.587687" />
    <circle
       style="opacity:1;fill:#1a1a1a;fill-opacity:0;stroke:#000000;stroke-width:0.26499999;stroke-miterlimit:4;stroke-dasharray:none;stroke-opacity:1"
       id="path8-29"
       cx="166.94455"
       cy="220.10043"
       r="5.587687" />
    <circle
       style="opacity:1;fill:#1a1a1a;fill-opacity:0;stroke:#000000;stroke-width:0.26499999;stroke-miterlimit:4;stroke-dasharray:none;stroke-opacity:1"
       id="path8-1"
       cx="105.21391"
       cy="258.6821"
       r="5.587687" />
    <circle
       style="opacity:1;fill:#1a1a1a;fill-opacity:0;stroke:#000000;stroke-width:0.26499999;stroke-miterlimit:4;stroke-dasharray:none;stroke-opacity:1"
       id="path8-27"
       cx="126.23425"
       cy="256.28738"
       r="5.587687" />
    <circle
       style="opacity:1;fill:#1a1a1a;fill-opacity:0;stroke:#000000;stroke-width:0.26499999;stroke-miterlimit:4;stroke-dasharray:none;stroke-opacity:1"
       id="path8-360"
       cx="149.11716"
       cy="257.88385"
       r="5.587687" />
    <circle
       style="opacity:1;fill:#1a1a1a;fill-opacity:0;stroke:#000000;stroke-width:0.26499999;stroke-miterlimit:4;stroke-dasharray:none;stroke-opacity:1"
       id="path8-626"
       cx="168.54103"
       cy="264.53586"
       r="5.587687" />
    <circle
       style="opacity:1;fill:#1a1a1a;fill-opacity:0;stroke:#000000;stroke-width:0.26499999;stroke-miterlimit:4;stroke-dasharray:none;stroke-opacity:1"
       id="path8-18"
       cx="186.90057"
       cy="270.38962"
       r="5.587687" />
    <circle
       style="opacity:1;fill:#1a1a1a;fill-opacity:0;stroke:#000000;stroke-width:0.26499999;stroke-miterlimit:4;stroke-dasharray:none;stroke-opacity:1"
       id="path8-6-7"
       cx="79.138039"
       cy="263.73761"
       r="5.587687" />
    <circle
       style="opacity:1;fill:#1a1a1a;fill-opacity:0;stroke:#000000;stroke-width:0.215693;stroke-miterlimit:4;stroke-dasharray:none;stroke-opacity:1"
       id="path8-62-1-9"
       cx="79.138039"
       cy="263.60458"
       r="4.5480189" />
    <path
       style="fill:none;stroke:#000000;stroke-width:0.26458332px;stroke-linecap:butt;stroke-linejoin:miter;stroke-opacity:1"
       d="m 36.831267,227.1516 c 0.53216,0.22172 1.034739,0.53555 1.59648,0.66518 0.114206,0.0264 0.254956,-0.89791 0.266081,-0.93129 0.268996,-0.80699 0.818867,-1.84571 1.330401,-2.52776 0.665801,-0.88773 1.175478,-1.87044 1.729522,-2.79384 0.539669,-0.89945 1.537174,-1.67021 2.261682,-2.39473 0.678001,-0.678 1.252732,-1.49189 1.995605,-2.12864 1.149757,-0.98551 2.498243,-1.65142 3.725124,-2.52776 0.871498,-0.6225 1.65649,-1.37327 2.527763,-1.9956 0.575628,-0.41117 1.313529,-0.6068 1.862561,-1.06433 1.807229,-1.50602 3.791631,-2.94588 5.85377,-4.12424 1.136702,-0.64955 2.321864,-1.21275 3.459043,-1.86256 0.674373,-0.38536 1.324158,-0.99468 1.995604,-1.3304 1.70398,-0.85199 3.542853,-1.79238 5.055526,-2.92689 0.509527,-0.38215 1.067247,-0.84454 1.59648,-1.19736 0.351679,-0.23445 0.926211,-0.39405 1.197364,-0.6652 0.200681,-0.20068 0.479864,-0.74595 0.79824,-1.06432 0.07951,-0.0795 0.266081,0.1438 0.266081,-0.13304 0,-0.10622 -0.898004,0.38803 -0.931283,0.39912 -0.599779,0.19993 -1.292749,0.38029 -1.862561,0.6652 -0.636982,0.31849 -1.064321,0.49096 -1.064321,0.39912 0,-0.0277 1.4371,-0.55888 1.995601,-0.79824 0.08862,-0.038 1.596483,-0.74534 1.596483,-0.6652 0,0.0943 -0.348705,0.53916 -0.399124,0.6652 -0.325911,0.81479 -1.330399,3.36582 -1.330399,4.12425"
       id="path477"
       inkscape:connector-curvature="0" />
    <path
       style="fill:none;stroke:#000000;stroke-width:0.26458332px;stroke-linecap:butt;stroke-linejoin:miter;stroke-opacity:1"
       d="m 41.620711,231.40886 c 2.96567,-2.26862 6.932481,-3.79704 10.643214,-5.18857 1.223018,-0.45863 2.343486,-1.18028 3.592085,-1.59648 2.364933,-0.78831 4.987134,-1.58508 7.450249,-1.9956 1.848551,-0.30809 3.36922,0.5097 5.055526,0.93128 0.356743,0.0892 0.609224,-0.028 0.931283,0.13304 0.200657,0.10033 0.438925,-0.19066 0.665199,-0.26608 0.54804,-0.18268 1.173565,-0.0808 1.729521,-0.26608 0.201242,-0.0671 0.912852,0.15147 1.064323,0 0.01712,-0.0171 -1.400704,-0.59994 -1.596485,-0.6652 -0.394557,-0.13152 -0.683059,-0.17077 -1.064318,-0.26608 -0.06833,-0.0171 -0.399124,-0.30923 -0.399124,-0.26608 0,0.46256 3.76809,1.24032 3.991205,1.46344 0.07478,0.0748 -0.650883,0.78631 -0.665197,0.79824 -0.321397,0.26783 -0.729628,0.41418 -1.064321,0.6652 -0.612735,0.45955 -1.225452,0.90566 -1.862563,1.3304"
       id="path479"
       inkscape:connector-curvature="0" />
    <path
       style="fill:none;stroke:#000000;stroke-width:0.26458332px;stroke-linecap:butt;stroke-linejoin:miter;stroke-opacity:1"
       d="m 39.359028,237.12959 c 1.465802,1.96275 3.079201,3.91536 5.188568,5.3216 1.017227,0.67816 2.215634,1.35785 3.326003,1.86257 0.794721,0.36123 1.644348,0.5868 2.394722,1.06432 3.663048,2.33103 7.602637,4.08849 11.574493,5.85376 1.833745,0.815 3.847962,1.12574 5.58769,1.99561 2.563572,1.28178 3.440105,1.42556 4.789443,4.12424 0.123756,0.24751 0.532164,0.53117 0.532164,0.6652 0,0.13304 -0.266081,0 -0.399121,0 -0.919885,0 -1.334548,-0.40119 -2.128642,-0.79824 -0.03984,-0.0199 -0.665202,-0.0863 -0.665202,-0.13304 0,-0.0448 0.861065,0.35699 0.931283,0.39912 0.581845,0.34911 2.641568,1.59648 3.059922,1.59648 0.399799,0 1.431012,-3.95877 0.798243,-3.326"
       id="path481"
       inkscape:connector-curvature="0" />
    <path
       style="fill:none;stroke:#000000;stroke-width:0.26458332px;stroke-linecap:butt;stroke-linejoin:miter;stroke-opacity:1"
       d="m 74.880753,276.9086 -0.399119,-0.53217 c -2.039305,0.43991 -0.228364,2.64195 0.79824,2.12865 0.338286,-0.16914 1.007097,-0.68379 1.197361,-1.06432 0.03966,-0.0793 -0.06271,-0.20337 0,-0.26608 0.1352,-0.1352 0.442138,-0.71221 0.266081,-1.06432 -0.897302,-1.79461 -3.152701,0.57242 -2.527763,1.19736"
       id="path483"
       inkscape:connector-curvature="0" />
    <path
       style="fill:none;stroke:#000000;stroke-width:0.26458332px;stroke-linecap:butt;stroke-linejoin:miter;stroke-opacity:1"
       d="m 75.146834,283.95972 c -1.289021,0.85725 -0.03803,1.96393 1.064318,1.59649 0.703633,-0.23455 1.065493,-1.94216 0.133043,-2.12865 -0.570635,-0.11412 -0.94824,0 -1.463442,0"
       id="path485"
       inkscape:connector-curvature="0" />
    <path
       style="fill:none;stroke:#000000;stroke-width:0.26458332px;stroke-linecap:butt;stroke-linejoin:miter;stroke-opacity:1"
       d="m 75.678993,287.41877 c -1.659676,0.13232 -0.827217,2.94137 0.532159,2.26168 1.260266,-0.63013 0.412533,-2.41913 -1.330399,-2.12864"
       id="path487"
       inkscape:connector-curvature="0" />
    <path
       style="fill:none;stroke:#000000;stroke-width:0.26458332px;stroke-linecap:butt;stroke-linejoin:miter;stroke-opacity:1"
       d="m 85.790045,220.89869 c -0.325258,-1.26576 0.843137,-2.18102 1.596485,-3.05993 1.509538,-1.76113 5.081201,-3.24587 7.317208,-3.9912 0.564994,-0.18833 1.236062,-0.28543 1.729523,-0.53216 0.167963,-0.084 0.670523,0.12771 0.79824,0 0.03234,-0.0323 0.532162,-0.42383 0.532162,-0.39912 0,0.18284 -0.354777,0.0887 -0.532162,0.13304 -0.595757,0.14894 -1.443204,0.53216 -1.995601,0.53216 -0.110871,0 0.177387,-0.13304 0.266078,-0.13304 1.045729,0 2.4408,-0.48868 3.326003,-0.93128 0.08869,-0.0444 0.195961,-0.20316 0.266081,-0.13305 0.06867,0.0687 -0.775478,0.64244 -0.79824,0.66521 -0.382913,0.38291 -1.629693,2.89367 -1.463442,3.05992"
       id="path489"
       inkscape:connector-curvature="0" />
    <path
       style="fill:none;stroke:#000000;stroke-width:0.26458332px;stroke-linecap:butt;stroke-linejoin:miter;stroke-opacity:1"
       d="m 83.528363,261.3429 c 2.581751,-4.52734 7.54762,-4.78945 12.239696,-4.78945 0.532498,0 3.592084,0.18829 3.592084,-0.13304 0,-0.0887 -0.186751,0.0397 -0.266081,0 -0.769787,-0.38489 -1.409991,-0.91346 -2.261682,-1.19736 -0.07951,-0.0265 -0.266081,0.0688 -0.266081,-0.13304 0,-0.20904 2.087261,0.35774 2.261682,0.53216 0.353145,0.35314 -0.903293,1.91394 -1.064318,2.12864"
       id="path499"
       inkscape:connector-curvature="0" />
    <path
       style="fill:none;stroke:#000000;stroke-width:0.26458332px;stroke-linecap:butt;stroke-linejoin:miter;stroke-opacity:1"
       d="m 110.8016,257.08561 c -0.0882,-0.62481 0.27293,-0.67205 0.6652,-1.06432 2.17265,-2.17265 4.57512,-1.8755 7.18417,-2.52776 0.0732,-0.0183 2.52776,-0.24821 2.52776,-0.13304 0,0.22289 -1.59133,-0.47689 -1.72952,-0.53216 -0.1249,-0.05 -1.19736,-0.0957 -1.19736,-0.26609 0,-0.0609 0.49847,0.24362 0.53216,0.26609 0.43463,0.28975 1.63846,0.4411 1.86256,0.6652 0.22974,0.22974 -1.26068,2.4897 -1.46344,2.79384"
       id="path501"
       inkscape:connector-curvature="0" />
    <text
       xml:space="preserve"
       style="font-style:normal;font-weight:normal;font-size:5.64444447px;line-height:1.25;font-family:sans-serif;letter-spacing:0px;word-spacing:0px;fill:#000000;fill-opacity:1;stroke:none;stroke-width:0.26458332"
       x="89.78125"
       y="213.18234"
       id="text519"><tspan
         sodipodi:role="line"
         id="tspan517"
         x="89.78125"
         y="213.18234"
         style="stroke-width:0.26458332">$0$</tspan></text>
    <text
       xml:space="preserve"
       style="font-style:normal;font-weight:normal;font-size:5.64444447px;line-height:1.25;font-family:sans-serif;letter-spacing:0px;word-spacing:0px;fill:#000000;fill-opacity:1;stroke:none;stroke-width:0.26458332"
       x="126.23425"
       y="209.05811"
       id="text523"><tspan
         sodipodi:role="line"
         id="tspan521"
         x="126.23425"
         y="209.05811"
         style="stroke-width:0.26458332">$0$</tspan></text>
    <text
       xml:space="preserve"
       style="font-style:normal;font-weight:normal;font-size:5.64444447px;line-height:1.25;font-family:sans-serif;letter-spacing:0px;word-spacing:0px;fill:#000000;fill-opacity:1;stroke:none;stroke-width:0.26458332"
       x="148.31892"
       y="211.7189"
       id="text527"><tspan
         sodipodi:role="line"
         id="tspan525"
         x="148.31892"
         y="211.7189"
         style="stroke-width:0.26458332">$1$</tspan></text>
    <text
       xml:space="preserve"
       style="font-style:normal;font-weight:normal;font-size:5.64444447px;line-height:1.25;font-family:sans-serif;letter-spacing:0px;word-spacing:0px;fill:#000000;fill-opacity:1;stroke:none;stroke-width:0.26458332"
       x="181.97807"
       y="218.23787"
       id="text531"><tspan
         sodipodi:role="line"
         id="tspan529"
         x="181.97807"
         y="218.23787"
         style="stroke-width:0.26458332">$1$</tspan></text>
    <text
       xml:space="preserve"
       style="font-style:normal;font-weight:normal;font-size:5.64444447px;line-height:1.25;font-family:sans-serif;letter-spacing:0px;word-spacing:0px;fill:#000000;fill-opacity:1;stroke:none;stroke-width:0.26458332"
       x="87.652611"
       y="254.15871"
       id="text535"><tspan
         sodipodi:role="line"
         id="tspan533"
         x="87.652611"
         y="254.15871"
         style="stroke-width:0.26458332">$0$</tspan></text>
    <text
       xml:space="preserve"
       style="font-style:normal;font-weight:normal;font-size:5.64444447px;line-height:1.25;font-family:sans-serif;letter-spacing:0px;word-spacing:0px;fill:#000000;fill-opacity:1;stroke:none;stroke-width:0.26458332"
       x="113.19631"
       y="249.76839"
       id="text539"><tspan
         sodipodi:role="line"
         id="tspan537"
         x="113.19631"
         y="249.76839"
         style="stroke-width:0.26458332">$0$</tspan></text>
    <text
       xml:space="preserve"
       style="font-style:normal;font-weight:normal;font-size:5.64444447px;line-height:1.25;font-family:sans-serif;letter-spacing:0px;word-spacing:0px;fill:#000000;fill-opacity:1;stroke:none;stroke-width:0.26458332"
       x="133.28539"
       y="249.36928"
       id="text543"><tspan
         sodipodi:role="line"
         id="tspan541"
         x="133.28539"
         y="249.36928"
         style="stroke-width:0.26458332">$0$</tspan></text>
    <text
       xml:space="preserve"
       style="font-style:normal;font-weight:normal;font-size:5.64444447px;line-height:1.25;font-family:sans-serif;letter-spacing:0px;word-spacing:0px;fill:#000000;fill-opacity:1;stroke:none;stroke-width:0.26458332"
       x="156.56741"
       y="254.95699"
       id="text547"><tspan
         sodipodi:role="line"
         id="tspan545"
         x="156.56741"
         y="254.95699"
         style="stroke-width:0.26458332">$1$</tspan></text>
    <text
       xml:space="preserve"
       style="font-style:normal;font-weight:normal;font-size:5.64444447px;line-height:1.25;font-family:sans-serif;letter-spacing:0px;word-spacing:0px;fill:#000000;fill-opacity:1;stroke:none;stroke-width:0.26458332"
       x="176.65648"
       y="258.94818"
       id="text551"><tspan
         sodipodi:role="line"
         id="tspan549"
         x="176.65648"
         y="258.94818"
         style="stroke-width:0.26458332">$1$</tspan></text>
    <text
       xml:space="preserve"
       style="font-style:normal;font-weight:normal;font-size:5.64444447px;line-height:1.25;font-family:sans-serif;letter-spacing:0px;word-spacing:0px;fill:#000000;fill-opacity:1;stroke:none;stroke-width:0.26458332"
       x="193.15346"
       y="263.47153"
       id="text555"><tspan
         sodipodi:role="line"
         id="tspan553"
         x="193.15346"
         y="263.47153"
         style="stroke-width:0.26458332">$1$</tspan></text>
    <text
       xml:space="preserve"
       style="font-style:normal;font-weight:normal;font-size:5.64444447px;line-height:1.25;font-family:sans-serif;letter-spacing:0px;word-spacing:0px;fill:#000000;fill-opacity:1;stroke:none;stroke-width:0.26458332"
       x="165.33162"
       y="189.32539"
       id="text285"><tspan
         sodipodi:role="line"
         id="tspan283"
         x="165.33162"
         y="189.32539"
         style="stroke-width:0.26458332">unspecified transitions</tspan><tspan
         sodipodi:role="line"
         x="165.33162"
         y="196.38095"
         style="stroke-width:0.26458332"
         id="tspan289">lead to an error state</tspan></text>
    <text
       xml:space="preserve"
       style="font-style:normal;font-weight:normal;font-size:5.64444447px;line-height:1.25;font-family:sans-serif;letter-spacing:0px;word-spacing:0px;fill:#000000;fill-opacity:1;stroke:none;stroke-width:0.26458332"
       x="40.432011"
       y="213.90749"
       id="text182"><tspan
         sodipodi:role="line"
         id="tspan180"
         x="40.432011"
         y="213.90749"
         style="stroke-width:0.26458332">$\epsilon$</tspan></text>
    <text
       xml:space="preserve"
       style="font-style:normal;font-weight:normal;font-size:5.64444447px;line-height:1.25;font-family:sans-serif;letter-spacing:0px;word-spacing:0px;fill:#000000;fill-opacity:1;stroke:none;stroke-width:0.26458332"
       x="39.679424"
       y="234.97998"
       id="text182-2"><tspan
         sodipodi:role="line"
         id="tspan180-0"
         x="39.679424"
         y="234.97998"
         style="stroke-width:0.26458332">$\epsilon$</tspan></text>
    <text
       xml:space="preserve"
       style="font-style:normal;font-weight:normal;font-size:5.64444447px;line-height:1.25;font-family:sans-serif;letter-spacing:0px;word-spacing:0px;fill:#000000;fill-opacity:1;stroke:none;stroke-width:0.26458332"
       x="43.818661"
       y="251.91324"
       id="text182-23"><tspan
         sodipodi:role="line"
         id="tspan180-75"
         x="43.818661"
         y="251.91324"
         style="stroke-width:0.26458332">$\epsilon$</tspan></text>
    <circle
       style="opacity:1;fill:#1a1a1a;fill-opacity:0;stroke:#000000;stroke-width:0.26499999;stroke-miterlimit:4;stroke-dasharray:none;stroke-opacity:1"
       id="path8-3-3"
       cx="125.58992"
       cy="190.30179"
       r="5.587687" />
    <circle
       style="opacity:1;fill:#1a1a1a;fill-opacity:0;stroke:#000000;stroke-width:0.215693;stroke-miterlimit:4;stroke-dasharray:none;stroke-opacity:1"
       id="path8-62-9-6"
       cx="125.58992"
       cy="190.16875"
       r="4.5480189" />
    <circle
       style="opacity:1;fill:#1a1a1a;fill-opacity:0;stroke:#000000;stroke-width:0.26499999;stroke-miterlimit:4;stroke-dasharray:none;stroke-opacity:1"
       id="path8-3-7"
       cx="206.21227"
       cy="223.82791"
       r="5.587687" />
    <circle
       style="opacity:1;fill:#1a1a1a;fill-opacity:0;stroke:#000000;stroke-width:0.215693;stroke-miterlimit:4;stroke-dasharray:none;stroke-opacity:1"
       id="path8-62-9-5"
       cx="206.21227"
       cy="223.69487"
       r="4.5480189" />
    <circle
       style="opacity:1;fill:#1a1a1a;fill-opacity:0;stroke:#000000;stroke-width:0.26499999;stroke-miterlimit:4;stroke-dasharray:none;stroke-opacity:1"
       id="path8-3-35"
       cx="207.0105"
       cy="274.1171"
       r="5.587687" />
    <circle
       style="opacity:1;fill:#1a1a1a;fill-opacity:0;stroke:#000000;stroke-width:0.215693;stroke-miterlimit:4;stroke-dasharray:none;stroke-opacity:1"
       id="path8-62-9-62"
       cx="207.0105"
       cy="273.98404"
       r="4.5480189" />
    <path
       style="fill:none;stroke:#000000;stroke-width:0.26458332px;stroke-linecap:butt;stroke-linejoin:miter;stroke-opacity:1"
       d="m 111.48766,189.76963 c 0.93243,-0.30697 1.72952,-1.01998 2.6608,-1.33041 0.57205,-0.19068 6.38593,-0.0148 6.38593,0.26608 0,0.59737 -4.23037,-1.35732 -3.72513,-1.86256 0.24007,-0.24007 0.34583,0.439 0.53217,0.53216 0.53831,0.26916 1.87594,0.55894 2.12864,1.06432 0.46845,0.93691 -0.50696,1.01393 -0.79824,1.59649 -0.36189,0.72377 -0.55996,1.06432 -1.59648,1.06432"
       id="path342"
       inkscape:connector-curvature="0" />
    <path
       style="fill:none;stroke:#000000;stroke-width:0.26458332px;stroke-linecap:butt;stroke-linejoin:miter;stroke-opacity:1"
       d="m 109.89118,212.12037 c 2.18431,0.12551 4.28806,0.64475 6.38593,1.06432 3.51845,0.7037 6.94921,1.87294 10.11105,2.92689 1.02526,0.34175 2.52271,-0.0921 3.45904,0.53216 0.30427,0.20285 1.43002,0.26608 1.06432,0.26608 -0.4082,0 -3.23968,-2.34801 -2.92688,-2.66081 0.56408,-0.56408 2.1891,2.00773 1.86256,2.66081 -0.48417,0.96835 -0.88341,1.50074 -1.3304,2.39472"
       id="path344"
       inkscape:connector-curvature="0" />
    <path
       style="fill:none;stroke:#000000;stroke-width:0.26458332px;stroke-linecap:butt;stroke-linejoin:miter;stroke-opacity:1"
       d="m 141.82082,218.24022 c 4.29869,1.09159 9.23801,2.12864 13.57009,2.12864 0.97563,0 1.95126,0 2.92689,0 0.26608,0 0.79824,-0.26608 0.79824,0 0,0.44347 -1.01683,0.31358 -1.3304,0 -0.12544,-0.12543 0.12543,-0.40673 0,-0.53216 -0.10741,-0.1074 -1.86257,0.0807 -1.86257,0 0,-0.25419 5.07518,0.28573 5.32161,0.53216 0.26582,0.26582 -0.68646,0.47628 -0.79824,0.53216 -0.49811,0.24906 -0.67176,0.93785 -1.06432,1.33041 -0.58657,0.58656 -1.03197,1.06432 -1.86256,1.06432"
       id="path346"
       inkscape:connector-curvature="0" />
    <path
       style="fill:none;stroke:#000000;stroke-width:0.26458332px;stroke-linecap:butt;stroke-linejoin:miter;stroke-opacity:1"
       d="m 173.2183,220.90102 c 3.3587,1.16221 6.60628,2.84894 10.11105,3.72513 1.70397,0.42599 4.1162,0 5.85376,0 2.32064,0 4.57897,0.26608 6.91809,0.26608 1.11681,0 5.1175,0.2041 5.85377,-0.53216 1.28225,-1.28225 -4.34407,-0.79824 -4.78945,-0.79824 -0.44346,0 -1.3304,0.44346 -1.3304,0 0,-0.44347 0.88694,0 1.3304,0 0.42344,0 2.86467,-0.3283 3.19297,0 0.0576,0.0576 0.042,0.98033 0,1.06432 -0.29819,0.59638 -1.03221,0.46794 -1.3304,1.06432 -0.34736,0.69472 -0.19957,1.52997 -0.79825,2.12864"
       id="path348"
       inkscape:connector-curvature="0" />
    <path
       style="fill:none;stroke:#000000;stroke-width:0.26458332px;stroke-linecap:butt;stroke-linejoin:miter;stroke-opacity:1"
       d="m 132.77409,255.49147 c 0,7.9e-4 9.04673,-5.3e-4 9.04673,0 0,0.24085 -1.03298,-0.78257 -1.06432,-0.79824 -0.16408,-0.082 -1.5854,-0.54326 -1.33041,-0.79824 0.21377,-0.21377 0.98258,0.23883 1.06432,0.26608 1.97492,0.6583 4.44956,2.29859 1.59649,3.72512 -0.41207,0.20603 -0.38324,-0.14893 -0.79825,0.26608"
       id="path350"
       inkscape:connector-curvature="0" />
    <path
       style="fill:none;stroke:#000000;stroke-width:0.26458332px;stroke-linecap:butt;stroke-linejoin:miter;stroke-opacity:1"
       d="m 154.85875,259.21659 c 0.95071,0.38496 1.53148,0.6327 2.39472,1.06432 1.07723,0.53862 3.05844,1.06432 4.25729,1.06432 0.3875,0 2.4181,0.82163 2.12864,0.53217 -0.16094,-0.16095 -2.09068,-3.76309 -2.6608,-3.19297 -0.74668,0.74668 4.41232,4.36833 3.9912,4.78945 -0.29672,0.29672 -2.46063,0 -2.92688,0 -0.79824,0 -1.59648,0 -2.39472,0"
       id="path352"
       inkscape:connector-curvature="0" />
    <path
       style="fill:none;stroke:#000000;stroke-width:0.26458332px;stroke-linecap:butt;stroke-linejoin:miter;stroke-opacity:1"
       d="m 173.75045,266.13468 c 2.49401,0.59099 5.28191,1.57663 7.45026,2.6608 0.27915,0.13958 1.11802,-0.21237 1.3304,0 0.13304,0.13304 0.13304,0.39912 0.26608,0.53216 0.11991,0.11992 0.79824,0.0613 0.79824,0.26609 0,0.98863 -2.86131,-2.99247 -2.92689,-2.92689 -0.60853,0.60853 2.52863,1.72866 2.12865,2.12864 -0.58822,0.58822 -4.35957,0 -5.32161,0"
       id="path354"
       inkscape:connector-curvature="0" />
    <path
       style="fill:none;stroke:#000000;stroke-width:0.26458332px;stroke-linecap:butt;stroke-linejoin:miter;stroke-opacity:1"
       d="m 191.04568,271.19021 c 0.81845,0.048 9.31281,0.83388 9.31281,1.06432 0,0.14053 -3.19082,-0.002 -2.6608,-0.53216 0.40858,-0.40859 3.9912,0.11972 3.9912,0.26608 0,0.40385 -4.31185,-1.54191 -3.9912,-1.86257 0.58424,-0.58424 2.15335,1.60884 2.6608,1.86257 0.0731,0.0365 1.50099,0.89373 1.3304,1.06432 -0.26209,0.26209 -4.01787,0 -5.32161,0"
       id="path356"
       inkscape:connector-curvature="0" />
    <path
       style="fill:none;stroke:#000000;stroke-width:0.26458332px;stroke-linecap:butt;stroke-linejoin:miter;stroke-opacity:1"
       d="m 132.77409,255.49147 c 2.7839,0.92355 6.67492,1.33422 9.84497,1.86256 0.20769,0.0346 2.6608,0.25881 2.6608,0.53216 0,0.51717 -0.96471,-0.43255 -1.3304,-0.79824 -0.67547,-0.67547 -1.78788,0.67635 -2.66081,1.06432"
       id="path358"
       inkscape:connector-curvature="0" />
  </g>
</svg>
