<?xml version="1.0" encoding="UTF-8" standalone="no"?>
<!-- Created with Inkscape (http://www.inkscape.org/) -->

<svg
   xmlns:dc="http://purl.org/dc/elements/1.1/"
   xmlns:cc="http://creativecommons.org/ns#"
   xmlns:rdf="http://www.w3.org/1999/02/22-rdf-syntax-ns#"
   xmlns:svg="http://www.w3.org/2000/svg"
   xmlns="http://www.w3.org/2000/svg"
   xmlns:sodipodi="http://sodipodi.sourceforge.net/DTD/sodipodi-0.dtd"
   xmlns:inkscape="http://www.inkscape.org/namespaces/inkscape"
   width="240mm"
   height="120mm"
   viewBox="0 0 240 120"
   version="1.1"
   id="svg8"
   inkscape:version="0.92.5 (2060ec1f9f, 2020-04-08)"
   sodipodi:docname="lec4-second-example.svg">
  <defs
     id="defs2" />
  <sodipodi:namedview
     id="base"
     pagecolor="#ffffff"
     bordercolor="#666666"
     borderopacity="1.0"
     inkscape:pageopacity="0.0"
     inkscape:pageshadow="2"
     inkscape:zoom="1.406257"
     inkscape:cx="450.59491"
     inkscape:cy="219.3654"
     inkscape:document-units="mm"
     inkscape:current-layer="layer1"
     showgrid="false"
     showborder="true"
     width="200mm"
     showguides="true"
     inkscape:guide-bbox="true"
     inkscape:window-width="1449"
     inkscape:window-height="1016"
     inkscape:window-x="471"
     inkscape:window-y="27"
     inkscape:window-maximized="0">
    <inkscape:grid
       type="xygrid"
       id="grid815"
       units="mm"
       spacingx="10"
       spacingy="10"
       empspacing="4"
       dotted="false" />
  </sodipodi:namedview>
  <metadata
     id="metadata5">
    <rdf:RDF>
      <cc:Work
         rdf:about="">
        <dc:format>image/svg+xml</dc:format>
        <dc:type
           rdf:resource="http://purl.org/dc/dcmitype/StillImage" />
        <dc:title />
      </cc:Work>
    </rdf:RDF>
  </metadata>
  <g
     inkscape:label="Layer 1"
     inkscape:groupmode="layer"
     id="layer1"
     transform="translate(0,-177)">
    <circle
       style="opacity:1;fill:#1a1a1a;fill-opacity:0;stroke:#000000;stroke-width:0.26499999;stroke-miterlimit:4;stroke-dasharray:none;stroke-opacity:1"
       id="path8"
       cx="48.447906"
       cy="221.45889"
       r="6.1147842" />
    <circle
       style="opacity:1;fill:#1a1a1a;fill-opacity:0;stroke:#000000;stroke-width:0.26499999;stroke-miterlimit:4;stroke-dasharray:none;stroke-opacity:1"
       id="path8-3"
       cx="74.882584"
       cy="219.2952"
       r="6.1147842" />
    <circle
       style="opacity:1;fill:#1a1a1a;fill-opacity:0;stroke:#000000;stroke-width:0.26499999;stroke-miterlimit:4;stroke-dasharray:none;stroke-opacity:1"
       id="path8-6"
       cx="101.2232"
       cy="218.16632"
       r="6.1147842" />
    <circle
       style="opacity:1;fill:#1a1a1a;fill-opacity:0;stroke:#000000;stroke-width:0.26499999;stroke-miterlimit:4;stroke-dasharray:none;stroke-opacity:1"
       id="path8-7"
       cx="123.98901"
       cy="217.03743"
       r="6.1147842" />
    <circle
       style="opacity:1;fill:#1a1a1a;fill-opacity:0;stroke:#000000;stroke-width:0.26499999;stroke-miterlimit:4;stroke-dasharray:none;stroke-opacity:1"
       id="path8-5"
       cx="147.5074"
       cy="216.28485"
       r="6.1147842" />
    <circle
       style="opacity:1;fill:#1a1a1a;fill-opacity:0;stroke:#000000;stroke-width:0.26499999;stroke-miterlimit:4;stroke-dasharray:none;stroke-opacity:1"
       id="path8-35"
       cx="169.70879"
       cy="215.53226"
       r="6.1147842" />
    <path
       style="fill:none;stroke:#000000;stroke-width:0.26458332px;stroke-linecap:butt;stroke-linejoin:miter;stroke-opacity:1"
       d="m 25.399873,222.87 c 4.69393,-2.45427 9.641564,-3.1985 14.86363,-3.1985 0.627157,0 1.254313,0 1.88147,0 0.125431,0 0.376296,-0.12543 0.376296,0 0,0.37629 -0.752589,0 -1.128884,0 -0.914215,0 -1.278253,-0.55475 -2.069619,-0.75259 -0.365059,-0.0913 -1.505177,0 -1.128884,0 0.528018,0 3.198738,-0.37606 3.574798,0 0.196943,0.19694 -3.141572,3.1985 -3.762944,3.1985"
       id="path49"
       inkscape:connector-curvature="0" />
    <circle
       style="opacity:1;fill:#1a1a1a;fill-opacity:0;stroke:#000000;stroke-width:0.26499999;stroke-miterlimit:4;stroke-dasharray:none;stroke-opacity:1"
       id="path8-3-6"
       cx="102.54023"
       cy="254.29059"
       r="6.1147842" />
    <path
       style="fill:none;stroke:#000000;stroke-width:0.26458332px;stroke-linecap:butt;stroke-linejoin:miter;stroke-opacity:1"
       d="m 54.186396,219.10706 c 3.061182,-2.23932 7.640423,-3.02876 11.476979,-2.06962 0.372687,0.0932 2.086915,1.11158 2.445915,0.75259 0.341828,-0.34183 -3.010356,-2.31347 -3.010356,-2.44592 0,-0.0127 0.668018,0.47987 1.128882,0.94074 0.327533,0.32753 2.173748,1.77734 2.069619,1.88147 -0.340575,0.34057 -1.95036,-0.12389 -2.445912,0 -0.598757,0.14969 -1.366131,0.30677 -1.881473,0.56444"
       id="path66"
       inkscape:connector-curvature="0" />
    <path
       style="fill:none;stroke:#000000;stroke-width:0.26458332px;stroke-linecap:butt;stroke-linejoin:miter;stroke-opacity:1"
       d="m 79.962562,217.22558 c 0.917122,-1.35651 1.824283,-1.28843 3.010355,-1.88147 3.056845,-1.52842 6.442114,-1.67829 9.783656,-0.56444 0.370785,0.1236 2.27207,1.30273 2.445912,1.12888 0.474001,-0.474 -1.519142,-2.63406 -1.31703,-2.63406 0.09645,0 1.693326,1.9731 1.693326,2.25777 0,0.38796 -2.220908,-0.6013 -3.198503,0.37629"
       id="path68"
       inkscape:connector-curvature="0" />
    <path
       style="fill:none;stroke:#000000;stroke-width:0.26458332px;stroke-linecap:butt;stroke-linejoin:miter;stroke-opacity:1"
       d="m 77.140355,224.75147 c 2.45179,5.82058 3.450254,12.40315 7.525887,17.49769 2.037945,2.54743 4.549754,4.7379 6.773299,6.96145 1.145551,1.14555 2.576462,1.66452 3.762944,2.25777 0.114527,0.0573 1.128884,0.48724 1.128884,0.56444 0,0.18814 -0.376295,0 -0.564441,0 -1.053356,0 -2.192631,-0.8141 -3.198502,-1.31703 -0.09014,-0.0451 -1.31703,-0.55451 -1.31703,-0.56444 0,-0.17614 1.490027,0.61705 1.693323,0.75258 0.655931,0.43729 2.284624,1.12889 3.010355,1.12889 0.176128,0 -0.176128,-1.82138 -0.188146,-1.88147 -0.161869,-0.80935 -0.230372,-2.48815 -0.376295,-2.63407"
       id="path70"
       inkscape:connector-curvature="0" />
    <path
       style="fill:none;stroke:#000000;stroke-width:0.26458332px;stroke-linecap:butt;stroke-linejoin:miter;stroke-opacity:1"
       d="m 168.39175,221.55297 c -2.3036,3.21221 -4.15137,6.309 -7.71404,8.09033 -1.99678,0.99839 -4.17739,1.80648 -6.20886,2.82221 -0.81712,0.40856 -1.81693,0.34402 -2.63405,0.75258 -4.45883,2.22942 -9.73818,4.1865 -14.67549,4.89183 -2.77048,0.39578 -5.32395,2.36115 -8.09033,2.82221 -1.88495,0.31416 -3.73639,1.04446 -5.64441,1.31703 -2.19375,0.31339 -4.30548,0.61985 -6.39701,1.31703 -0.83456,0.27819 -1.63382,0.36142 -2.44591,0.56444 -0.86069,0.21518 -1.59847,0.91703 -2.44592,1.12889 -1.6189,0.40472 -3.4321,1.33975 -4.89182,2.06962 -0.22405,0.11202 -0.98557,0.79742 -1.12889,0.94073 -0.0848,0.0848 -0.0434,0.56444 -0.18814,0.56444 -0.25859,0 0.10637,-0.50727 0.18814,-0.75259 0.20225,-0.60672 1.45249,-3.01035 1.88148,-3.01035 0.49229,0 -1.29738,2.4197 -1.31703,2.44591 -0.75467,1.00623 -1.31704,2.13406 -1.31704,2.06962 0,-0.71579 5.64149,-1.50518 5.83257,-1.50518"
       id="path72"
       inkscape:connector-curvature="0" />
    <path
       style="fill:none;stroke:#000000;stroke-width:0.26458332px;stroke-linecap:butt;stroke-linejoin:miter;stroke-opacity:1"
       d="m 106.30317,214.77967 c 0.42106,-0.60973 1.36124,-0.7968 1.69333,-1.12888 0.26437,-0.26438 5.04669,-0.76923 5.45627,-0.56444 0.50886,0.25443 3.09764,1.31703 3.38664,1.31703 0.3825,0 0.97417,0.393 1.31704,0.56444 0.0531,0.0266 0.75258,-0.0204 0.75258,0 0,0.0741 -0.67582,-0.82559 -0.75258,-0.94074 -0.3178,-0.47669 -0.69402,-0.88217 -0.94074,-1.12888 -0.0887,-0.0887 -0.3763,0.12543 -0.3763,0 0,-0.41193 1.75703,1.62962 1.69333,1.69332 -0.32481,0.32481 -3.98077,0.59413 -4.51553,1.12889"
       id="path74"
       inkscape:connector-curvature="0" />
    <path
       style="fill:none;stroke:#000000;stroke-width:0.26458332px;stroke-linecap:butt;stroke-linejoin:miter;stroke-opacity:1"
       d="m 129.44528,214.21523 c 0.92653,-0.77803 1.53665,-0.8624 2.44591,-1.31703 0.30104,-0.15052 0.82785,0.15051 1.12888,0 1.58558,-0.79279 5.69048,-0.14209 6.58516,0.75259 0.019,0.019 1.24459,0.37629 1.12888,0.37629 -0.12543,0 0.0561,-0.2641 0,-0.37629 -0.12709,-0.25418 -0.25423,-0.50847 -0.37629,-0.75259 -0.0899,-0.1798 -0.96979,-0.67304 -0.3763,-0.3763 0.23779,0.1189 1.69333,0.84824 1.69333,1.31703 0,0.17093 -4.32739,-0.49205 -4.32739,0.94074"
       id="path76"
       inkscape:connector-curvature="0" />
    <path
       style="fill:none;stroke:#000000;stroke-width:0.26458332px;stroke-linecap:butt;stroke-linejoin:miter;stroke-opacity:1"
       d="m 153.52812,214.02708 c 2.06256,-0.94041 5.65935,-1.874 7.90218,-0.75259 0.36357,0.18179 0.94601,0.003 1.31703,0.18815 0.46781,0.2339 1.06722,0.34546 1.50518,0.56444 0.10335,0.0517 0.56444,0.41686 0.56444,0.3763 0,-0.58045 -2.04588,-1.99108 -2.44591,-2.25777 -0.30428,-0.20285 -0.94074,-0.19875 -0.94074,-0.56444 0,-0.28888 3.46648,1.54128 2.44592,1.88147 -0.27554,0.0918 -0.6587,-0.0705 -0.94074,0 -0.73831,0.18458 -3.51711,1.07119 -3.95109,1.50518"
       id="path78"
       inkscape:connector-curvature="0" />
    <path
       style="fill:none;stroke:#000000;stroke-width:0.26458332px;stroke-linecap:butt;stroke-linejoin:miter;stroke-opacity:1"
       d="m 99.906165,258.99426 c -0.925049,0.69102 -1.698733,1.52141 -2.069618,2.63406 -0.05609,0.16829 -0.296966,0.21764 -0.376296,0.3763 -0.781391,1.56278 -1.310899,3.96948 -0.752589,5.64441 0.580584,1.74175 1.751539,3.5554 3.951088,2.82221 0.40904,-0.13634 0.74059,-0.55844 1.12889,-0.75259 0.35691,-0.17845 1.31483,-0.56004 1.50518,-0.94073 1.05016,-2.10034 1.76705,-4.74438 0.75258,-6.7733 -0.0561,-0.11219 0.0887,-0.2876 0,-0.3763 -0.52812,-0.52812 -1.35824,3.72174 -1.69332,3.38665 -0.0104,-0.0104 1.08036,-3.95109 1.12888,-3.95109 0.58601,0 2.11651,1.74022 2.44592,2.06962"
       id="path80"
       inkscape:connector-curvature="0" />
    <circle
       style="opacity:1;fill:#1a1a1a;fill-opacity:0;stroke:#000000;stroke-width:0.21312408;stroke-miterlimit:4;stroke-dasharray:none;stroke-opacity:1"
       id="path8-35-2"
       cx="169.80284"
       cy="215.43819"
       r="4.9177651" />
    <path
       style="fill:none;stroke:#000000;stroke-width:0.26458332px;stroke-linecap:butt;stroke-linejoin:miter;stroke-opacity:1"
       d="m 47.036802,214.21523 c -1.123543,-1.86301 -1.881474,-4.03758 -1.881474,-6.20886 0,-1.39633 -0.134897,-3.25175 0.940737,-4.32739 0.241565,-0.24156 0.657249,-0.1873 0.940737,-0.37629 1.479952,-0.98663 3.065959,-0.0769 3.762943,1.31703 0.176544,0.35309 0.605647,0.27056 0.752589,0.56444 0.125431,0.25086 -0.125431,0.68987 0,0.94074 0.561692,1.12338 0.774843,5.99846 -0.188148,6.96145 -0.311131,0.31113 -0.376293,0.53048 -0.376293,1.12888 0,0.12543 0.125431,0.37629 0,0.37629 -0.387149,0 0.16315,-3.9011 -0.376295,-2.82221 -0.211392,0.42279 0.180342,4.51554 0,4.51554 -0.08869,0 0.125431,-0.12544 0.188147,-0.18815 0.197149,-0.19715 0.171972,-0.67909 0.564441,-0.94074 0.906542,-0.60436 1.505178,-0.28315 1.505178,-1.31703"
       id="path97"
       inkscape:connector-curvature="0" />
    <text
       xml:space="preserve"
       style="font-style:normal;font-weight:normal;font-size:5.64444447px;line-height:1.25;font-family:sans-serif;letter-spacing:0px;word-spacing:0px;fill:#000000;fill-opacity:1;stroke:none;stroke-width:0.26458332"
       x="46.660507"
       y="200.85678"
       id="text101"><tspan
         sodipodi:role="line"
         id="tspan99"
         x="46.660507"
         y="200.85678"
         style="stroke-width:0.26458332">$0, 1$</tspan></text>
    <text
       xml:space="preserve"
       style="font-style:normal;font-weight:normal;font-size:5.64444447px;line-height:1.25;font-family:sans-serif;letter-spacing:0px;word-spacing:0px;fill:#000000;fill-opacity:1;stroke:none;stroke-width:0.26458332"
       x="57.573044"
       y="214.21523"
       id="text105"><tspan
         sodipodi:role="line"
         id="tspan103"
         x="57.573044"
         y="214.21523"
         style="stroke-width:0.26458332">$\epsilon$</tspan></text>
    <text
       xml:space="preserve"
       style="font-style:normal;font-weight:normal;font-size:5.64444447px;line-height:1.25;font-family:sans-serif;letter-spacing:0px;word-spacing:0px;fill:#000000;fill-opacity:1;stroke:none;stroke-width:0.26458332"
       x="87.112152"
       y="212.33376"
       id="text109"><tspan
         sodipodi:role="line"
         id="tspan107"
         x="87.112152"
         y="212.33376"
         style="stroke-width:0.26458332">$1$</tspan></text>
    <text
       xml:space="preserve"
       style="font-style:normal;font-weight:normal;font-size:5.64444447px;line-height:1.25;font-family:sans-serif;letter-spacing:0px;word-spacing:0px;fill:#000000;fill-opacity:1;stroke:none;stroke-width:0.26458332"
       x="82.596619"
       y="237.54549"
       id="text113"><tspan
         sodipodi:role="line"
         id="tspan111"
         x="82.596619"
         y="237.54549"
         style="stroke-width:0.26458332">$0$</tspan></text>
    <text
       xml:space="preserve"
       style="font-style:normal;font-weight:normal;font-size:5.64444447px;line-height:1.25;font-family:sans-serif;letter-spacing:0px;word-spacing:0px;fill:#000000;fill-opacity:1;stroke:none;stroke-width:0.26458332"
       x="97.460251"
       y="274.61047"
       id="text117"><tspan
         sodipodi:role="line"
         id="tspan115"
         x="97.460251"
         y="274.61047"
         style="stroke-width:0.26458332">$0, 1$</tspan></text>
    <text
       xml:space="preserve"
       style="font-style:normal;font-weight:normal;font-size:5.64444447px;line-height:1.25;font-family:sans-serif;letter-spacing:0px;word-spacing:0px;fill:#000000;fill-opacity:1;stroke:none;stroke-width:0.26458332"
       x="136.78302"
       y="242.8136"
       id="text121"><tspan
         sodipodi:role="line"
         id="tspan119"
         x="136.78302"
         y="242.8136"
         style="stroke-width:0.26458332">$0, 1$</tspan></text>
    <text
       xml:space="preserve"
       style="font-style:normal;font-weight:normal;font-size:5.64444447px;line-height:1.25;font-family:sans-serif;letter-spacing:0px;word-spacing:0px;fill:#000000;fill-opacity:1;stroke:none;stroke-width:0.26458332"
       x="108.3728"
       y="210.45229"
       id="text125"><tspan
         sodipodi:role="line"
         id="tspan123"
         x="108.3728"
         y="210.45229"
         style="stroke-width:0.26458332">$0, 1$</tspan></text>
    <text
       xml:space="preserve"
       style="font-style:normal;font-weight:normal;font-size:5.64444447px;line-height:1.25;font-family:sans-serif;letter-spacing:0px;word-spacing:0px;fill:#000000;fill-opacity:1;stroke:none;stroke-width:0.26458332"
       x="131.32675"
       y="210.82858"
       id="text129"><tspan
         sodipodi:role="line"
         id="tspan127"
         x="131.32675"
         y="210.82858"
         style="stroke-width:0.26458332">$0, 1$</tspan></text>
    <text
       xml:space="preserve"
       style="font-style:normal;font-weight:normal;font-size:5.64444447px;line-height:1.25;font-family:sans-serif;letter-spacing:0px;word-spacing:0px;fill:#000000;fill-opacity:1;stroke:none;stroke-width:0.26458332"
       x="155.40959"
       y="210.26413"
       id="text133"><tspan
         sodipodi:role="line"
         id="tspan131"
         x="155.40959"
         y="210.26413"
         style="stroke-width:0.26458332">$0, 1$</tspan></text>
    <text
       xml:space="preserve"
       style="font-style:normal;font-weight:normal;font-size:5.64444447px;line-height:1.25;font-family:sans-serif;letter-spacing:0px;word-spacing:0px;fill:#000000;fill-opacity:1;stroke:none;stroke-width:0.26458332"
       x="45.719769"
       y="223.24629"
       id="text137"><tspan
         sodipodi:role="line"
         id="tspan135"
         x="45.719769"
         y="223.24629"
         style="stroke-width:0.26458332">$A$</tspan></text>
    <text
       xml:space="preserve"
       style="font-style:normal;font-weight:normal;font-size:5.64444447px;line-height:1.25;font-family:sans-serif;letter-spacing:0px;word-spacing:0px;fill:#000000;fill-opacity:1;stroke:none;stroke-width:0.26458332"
       x="72.060379"
       y="220.98853"
       id="text141"><tspan
         sodipodi:role="line"
         id="tspan139"
         x="72.060379"
         y="220.98853"
         style="stroke-width:0.26458332">$B$</tspan></text>
    <text
       xml:space="preserve"
       style="font-style:normal;font-weight:normal;font-size:5.64444447px;line-height:1.25;font-family:sans-serif;letter-spacing:0px;word-spacing:0px;fill:#000000;fill-opacity:1;stroke:none;stroke-width:0.26458332"
       x="97.836548"
       y="220.23593"
       id="text145"><tspan
         sodipodi:role="line"
         id="tspan143"
         x="97.836548"
         y="220.23593"
         style="stroke-width:0.26458332">$C$</tspan></text>
    <text
       xml:space="preserve"
       style="font-style:normal;font-weight:normal;font-size:5.64444447px;line-height:1.25;font-family:sans-serif;letter-spacing:0px;word-spacing:0px;fill:#000000;fill-opacity:1;stroke:none;stroke-width:0.26458332"
       x="120.60236"
       y="219.48335"
       id="text149"><tspan
         sodipodi:role="line"
         id="tspan147"
         x="120.60236"
         y="219.48335"
         style="stroke-width:0.26458332">$D$</tspan></text>
    <text
       xml:space="preserve"
       style="font-style:normal;font-weight:normal;font-size:5.64444447px;line-height:1.25;font-family:sans-serif;letter-spacing:0px;word-spacing:0px;fill:#000000;fill-opacity:1;stroke:none;stroke-width:0.26458332"
       x="145.06149"
       y="218.16632"
       id="text153"><tspan
         sodipodi:role="line"
         id="tspan151"
         x="145.06149"
         y="218.16632"
         style="stroke-width:0.26458332">$E$</tspan></text>
    <text
       xml:space="preserve"
       style="font-style:normal;font-weight:normal;font-size:5.64444447px;line-height:1.25;font-family:sans-serif;letter-spacing:0px;word-spacing:0px;fill:#000000;fill-opacity:1;stroke:none;stroke-width:0.26458332"
       x="167.8273"
       y="217.41373"
       id="text157"><tspan
         sodipodi:role="line"
         id="tspan155"
         x="167.8273"
         y="217.41373"
         style="stroke-width:0.26458332">$F$</tspan></text>
    <text
       xml:space="preserve"
       style="font-style:normal;font-weight:normal;font-size:5.64444447px;line-height:1.25;font-family:sans-serif;letter-spacing:0px;word-spacing:0px;fill:#000000;fill-opacity:1;stroke:none;stroke-width:0.26458332"
       x="99.718025"
       y="254.85503"
       id="text161"><tspan
         sodipodi:role="line"
         id="tspan159"
         x="99.718025"
         y="254.85503"
         style="stroke-width:0.26458332">$e$</tspan></text>
  </g>
</svg>
