<?xml version="1.0" encoding="UTF-8" standalone="no"?>
<!-- Created with Inkscape (http://www.inkscape.org/) -->

<svg
   xmlns:dc="http://purl.org/dc/elements/1.1/"
   xmlns:cc="http://creativecommons.org/ns#"
   xmlns:rdf="http://www.w3.org/1999/02/22-rdf-syntax-ns#"
   xmlns:svg="http://www.w3.org/2000/svg"
   xmlns="http://www.w3.org/2000/svg"
   xmlns:sodipodi="http://sodipodi.sourceforge.net/DTD/sodipodi-0.dtd"
   xmlns:inkscape="http://www.inkscape.org/namespaces/inkscape"
   width="240mm"
   height="120mm"
   viewBox="0 0 240 120"
   version="1.1"
   id="svg8"
   inkscape:version="0.92.5 (2060ec1f9f, 2020-04-08)"
   sodipodi:docname="modfsm.svg">
  <defs
     id="defs2" />
  <sodipodi:namedview
     id="base"
     pagecolor="#ffffff"
     bordercolor="#666666"
     borderopacity="1.0"
     inkscape:pageopacity="0.0"
     inkscape:pageshadow="2"
     inkscape:zoom="0.99437388"
     inkscape:cx="284.27627"
     inkscape:cy="182.72055"
     inkscape:document-units="mm"
     inkscape:current-layer="layer1"
     showgrid="false"
     showborder="true"
     width="200mm"
     showguides="true"
     inkscape:guide-bbox="true"
     inkscape:window-width="1848"
     inkscape:window-height="1016"
     inkscape:window-x="72"
     inkscape:window-y="27"
     inkscape:window-maximized="1">
    <inkscape:grid
       type="xygrid"
       id="grid815"
       units="mm"
       spacingx="10"
       spacingy="10"
       empspacing="4"
       dotted="false" />
  </sodipodi:namedview>
  <metadata
     id="metadata5">
    <rdf:RDF>
      <cc:Work
         rdf:about="">
        <dc:format>image/svg+xml</dc:format>
        <dc:type
           rdf:resource="http://purl.org/dc/dcmitype/StillImage" />
        <dc:title />
      </cc:Work>
    </rdf:RDF>
  </metadata>
  <g
     inkscape:label="Layer 1"
     inkscape:groupmode="layer"
     id="layer1"
     transform="translate(0,-177)">
    <ellipse
       style="opacity:1;fill:#1a1a1a;fill-opacity:0;stroke:#000000;stroke-width:0.26499999;stroke-miterlimit:4;stroke-dasharray:none;stroke-opacity:1"
       id="path8"
       cx="164.17157"
       cy="216.37766"
       rx="7.98241"
       ry="8.2484903" />
    <ellipse
       style="opacity:1;fill:#1a1a1a;fill-opacity:0;stroke:#000000;stroke-width:0.26499999;stroke-miterlimit:4;stroke-dasharray:none;stroke-opacity:1"
       id="path8-3"
       cx="123.46127"
       cy="191.3661"
       rx="7.98241"
       ry="8.2484903" />
    <ellipse
       style="opacity:1;fill:#1a1a1a;fill-opacity:0;stroke:#000000;stroke-width:0.26499999;stroke-miterlimit:4;stroke-dasharray:none;stroke-opacity:1"
       id="path8-6"
       cx="84.879623"
       cy="216.90982"
       rx="7.98241"
       ry="8.2484903" />
    <ellipse
       style="opacity:1;fill:#1a1a1a;fill-opacity:0;stroke:#000000;stroke-width:0.26499999;stroke-miterlimit:4;stroke-dasharray:none;stroke-opacity:1"
       id="path8-7"
       cx="96.853241"
       cy="264.00604"
       rx="7.98241"
       ry="8.2484903" />
    <ellipse
       style="opacity:1;fill:#1a1a1a;fill-opacity:0;stroke:#000000;stroke-width:0.26499999;stroke-miterlimit:4;stroke-dasharray:none;stroke-opacity:1"
       id="path8-5"
       cx="144.7477"
       cy="262.67563"
       rx="7.98241"
       ry="8.2484903" />
    <path
       style="fill:none;stroke:#000000;stroke-width:0.26458332px;stroke-linecap:butt;stroke-linejoin:miter;stroke-opacity:1"
       d="m 209.6713,220.90102 c -8.24031,-1.53149 -15.58567,-6.88017 -23.94723,-7.71633 -1.61988,-0.16198 -10.36142,1.34612 -11.44145,0.26608 -1.10956,-1.10955 1.62381,-3.45904 3.19296,-3.45904 1.67346,0 -4.30177,3.92909 -2.6608,4.25728 4.40742,0.88149 9.24453,1.67066 13.30401,3.19297"
       id="path43"
       inkscape:connector-curvature="0" />
    <path
       style="fill:none;stroke:#000000;stroke-width:0.26458332px;stroke-linecap:butt;stroke-linejoin:miter;stroke-opacity:1"
       d="m 170.02533,206.53269 c 2.41744,-2.11208 5.05823,-3.95629 7.18417,-6.38593 4.77928,-5.46203 9.95467,-23.04338 -3.45905,-19.68995 -9.47335,2.36834 -6.84844,20.15246 -9.57889,22.88291 -1.04808,1.04809 -2.98293,-8.24849 -2.12864,-8.24849 2.98769,0 -4.43854,12.95311 3.45905,5.05553 1.14217,-1.14218 2.30201,-1.88945 3.45904,-2.6608"
       id="path45"
       inkscape:connector-curvature="0" />
    <text
       xml:space="preserve"
       style="font-style:normal;font-weight:normal;font-size:5.64444447px;line-height:1.25;font-family:sans-serif;letter-spacing:0px;word-spacing:0px;fill:#000000;fill-opacity:1;stroke:none;stroke-width:0.26458332"
       x="161.51076"
       y="216.90982"
       id="text51"><tspan
         sodipodi:role="line"
         id="tspan49"
         x="161.51076"
         y="216.90982"
         style="stroke-width:0.26458332">$0$</tspan></text>
    <text
       xml:space="preserve"
       style="font-style:normal;font-weight:normal;font-size:5.64444447px;line-height:1.25;font-family:sans-serif;letter-spacing:0px;word-spacing:0px;fill:#000000;fill-opacity:1;stroke:none;stroke-width:0.26458332"
       x="121.86479"
       y="192.96259"
       id="text55"><tspan
         sodipodi:role="line"
         id="tspan53"
         x="121.86479"
         y="192.96259"
         style="stroke-width:0.26458332">$1$</tspan></text>
    <text
       xml:space="preserve"
       style="font-style:normal;font-weight:normal;font-size:5.64444447px;line-height:1.25;font-family:sans-serif;letter-spacing:0px;word-spacing:0px;fill:#000000;fill-opacity:1;stroke:none;stroke-width:0.26458332"
       x="81.952744"
       y="219.30455"
       id="text59"><tspan
         sodipodi:role="line"
         id="tspan57"
         x="81.952744"
         y="219.30455"
         style="stroke-width:0.26458332">$2$</tspan></text>
    <text
       xml:space="preserve"
       style="font-style:normal;font-weight:normal;font-size:5.64444447px;line-height:1.25;font-family:sans-serif;letter-spacing:0px;word-spacing:0px;fill:#000000;fill-opacity:1;stroke:none;stroke-width:0.26458332"
       x="94.724594"
       y="266.40076"
       id="text63"><tspan
         sodipodi:role="line"
         id="tspan61"
         x="94.724594"
         y="266.40076"
         style="stroke-width:0.26458332">$3$</tspan></text>
    <text
       xml:space="preserve"
       style="font-style:normal;font-weight:normal;font-size:5.64444447px;line-height:1.25;font-family:sans-serif;letter-spacing:0px;word-spacing:0px;fill:#000000;fill-opacity:1;stroke:none;stroke-width:0.26458332"
       x="141.82082"
       y="265.07034"
       id="text67"><tspan
         sodipodi:role="line"
         id="tspan65"
         x="141.82082"
         y="265.07034"
         style="stroke-width:0.26458332">$4$</tspan></text>
    <path
       style="fill:none;stroke:#000000;stroke-width:0.26458332px;stroke-linecap:butt;stroke-linejoin:miter;stroke-opacity:1"
       d="m 157.25347,210.78997 c -3.36905,-6.78437 -8.6763,-11.6248 -15.69873,-14.63442 -0.66895,-0.28669 -6.04169,-3.27112 -6.65201,-2.6608 -1.36974,1.36973 1.59648,7.52478 1.59648,5.58769 0,-7.31911 -5.57944,-7.45025 4.78944,-7.45025"
       id="path69"
       inkscape:connector-curvature="0" />
    <path
       style="fill:none;stroke:#000000;stroke-width:0.26458332px;stroke-linecap:butt;stroke-linejoin:miter;stroke-opacity:1"
       d="m 117.6075,195.62339 c -13.51758,-1.87176 -19.708406,4.80792 -27.406267,12.50578 -0.02635,0.0264 -0.858928,-6.38593 -0.266081,-6.38593 2.273633,0 -3.861191,7.54571 2.394723,6.65201"
       id="path71"
       inkscape:connector-curvature="0" />
    <path
       style="fill:none;stroke:#000000;stroke-width:0.26458332px;stroke-linecap:butt;stroke-linejoin:miter;stroke-opacity:1"
       d="m 117.6075,195.62339 c 0.56865,1.95948 -0.1447,3.10348 -1.06432,4.78945 -4.13988,7.58979 -8.52017,14.65685 -10.64321,23.14899 -2.18083,8.72333 -1.15607,19.34127 -5.05553,27.14019 -0.60675,1.21351 0.55851,3.99121 -0.79824,3.99121 -2.380804,0 -2.660799,-9.68347 -2.660799,-8.51457 0,16.15521 1.817592,8.28596 9.844969,1.59648"
       id="path75"
       inkscape:connector-curvature="0" />
    <path
       style="fill:none;stroke:#000000;stroke-width:0.26458332px;stroke-linecap:butt;stroke-linejoin:miter;stroke-opacity:1"
       d="m 85.411785,224.89223 c 11.293205,12.12134 25.940815,19.09025 40.444215,26.34195 4.32392,2.16197 15.43265,5.09825 15.43265,4.52337 0,-2.73578 -8.12657,-5.24033 -9.84497,-6.38593"
       id="path77"
       inkscape:connector-curvature="0" />
    <path
       style="fill:none;stroke:#000000;stroke-width:0.26458332px;stroke-linecap:butt;stroke-linejoin:miter;stroke-opacity:1"
       d="m 85.411785,224.89223 c 5.364628,-0.0581 71.189895,8.48777 74.236415,2.39472 0.47375,-0.9475 -13.83618,-0.41614 -13.83618,-0.53216 0,-0.006 12.22655,-4.00435 13.5701,-2.6608 1.18439,1.18439 -7.26493,11.29652 -8.24849,12.77185"
       id="path79"
       inkscape:connector-curvature="0" />
    <path
       style="fill:none;stroke:#000000;stroke-width:0.26458332px;stroke-linecap:butt;stroke-linejoin:miter;stroke-opacity:1"
       d="m 104.83565,259.74875 c 2.68659,-3.82552 5.37351,-7.5281 7.98241,-11.44145 5.83012,-8.74518 6.11985,-19.33756 6.11985,-29.53492 0,-3.90251 0,-7.80502 0,-11.70753 0,-0.62086 0.43901,-2.30158 0,-1.86257 -0.79383,0.79383 -3.09423,6.91809 -3.72513,6.91809 -0.58906,0 2.26901,-9.84497 3.72513,-9.84497 2.2803,0 0.97003,4.45945 1.59648,6.65201"
       id="path81"
       inkscape:connector-curvature="0" />
    <path
       style="fill:none;stroke:#000000;stroke-width:0.26458332px;stroke-linecap:butt;stroke-linejoin:miter;stroke-opacity:1"
       d="m 90.467311,257.08795 c -5.34453,2.24536 -10.465226,-30.06708 -7.450248,-30.06708 2.068668,0 -1.124294,5.32161 -3.192963,5.32161 -0.120883,0 3.201421,-9.04673 5.321604,-9.04673 0.189543,0 1.330402,7.58793 1.330402,8.78065"
       id="path83"
       inkscape:connector-curvature="0" />
    <path
       style="fill:none;stroke:#000000;stroke-width:0.26458332px;stroke-linecap:butt;stroke-linejoin:miter;stroke-opacity:1"
       d="m 139.95825,256.02363 c -4.85559,0.48837 -9.8514,0.91319 -14.63441,1.59648"
       id="path85"
       inkscape:connector-curvature="0" />
    <path
       style="fill:none;stroke:#000000;stroke-width:0.26458332px;stroke-linecap:butt;stroke-linejoin:miter;stroke-opacity:1"
       d="m 137.03137,266.40076 c -1.19526,6.26867 -30.66249,2.1919 -32.4618,3.99121 -0.59786,0.59786 2.61237,6.38592 2.6608,6.38592 0.13109,0 -2.90661,-7.47052 -2.6608,-7.71633 1.60316,-1.60316 4.42846,-2.6608 6.91809,-2.6608"
       id="path87"
       inkscape:connector-curvature="0" />
    <path
       style="fill:none;stroke:#000000;stroke-width:0.26458332px;stroke-linecap:butt;stroke-linejoin:miter;stroke-opacity:1"
       d="m 144.7477,271.45629 c -4.50829,11.5701 20.53729,19.57119 16.2309,6.652 -0.44042,-1.32127 -6.11698,-8.78065 -7.71633,-8.78065 -1.59648,0 0,6.38593 0,4.78945 0,-4.95318 -1.06188,-6.11915 4.52337,-4.52336"
       id="path89"
       inkscape:connector-curvature="0" />
    <text
       xml:space="preserve"
       style="font-style:normal;font-weight:normal;font-size:5.64444447px;line-height:1.25;font-family:sans-serif;letter-spacing:0px;word-spacing:0px;fill:#000000;fill-opacity:1;stroke:none;stroke-width:0.26458332"
       x="185.99014"
       y="188.43922"
       id="text93"><tspan
         sodipodi:role="line"
         id="tspan91"
         x="185.99014"
         y="188.43922"
         style="stroke-width:0.26458332">$0$</tspan></text>
    <text
       xml:space="preserve"
       style="font-style:normal;font-weight:normal;font-size:5.64444447px;line-height:1.25;font-family:sans-serif;letter-spacing:0px;word-spacing:0px;fill:#000000;fill-opacity:1;stroke:none;stroke-width:0.26458332"
       x="145.27986"
       y="195.6234"
       id="text97"><tspan
         sodipodi:role="line"
         id="tspan95"
         x="145.27986"
         y="195.6234"
         style="stroke-width:0.26458332">$1$</tspan></text>
    <text
       xml:space="preserve"
       style="font-style:normal;font-weight:normal;font-size:5.64444447px;line-height:1.25;font-family:sans-serif;letter-spacing:0px;word-spacing:0px;fill:#000000;fill-opacity:1;stroke:none;stroke-width:0.26458332"
       x="98.981888"
       y="194.29298"
       id="text101"><tspan
         sodipodi:role="line"
         id="tspan99"
         x="98.981888"
         y="194.29298"
         style="stroke-width:0.26458332">$0$</tspan></text>
    <text
       xml:space="preserve"
       style="font-style:normal;font-weight:normal;font-size:5.64444447px;line-height:1.25;font-family:sans-serif;letter-spacing:0px;word-spacing:0px;fill:#000000;fill-opacity:1;stroke:none;stroke-width:0.26458332"
       x="102.97309"
       y="212.65254"
       id="text105"><tspan
         sodipodi:role="line"
         id="tspan103"
         x="102.97309"
         y="212.65254"
         style="stroke-width:0.26458332">$1$</tspan></text>
    <text
       xml:space="preserve"
       style="font-style:normal;font-weight:normal;font-size:5.64444447px;line-height:1.25;font-family:sans-serif;letter-spacing:0px;word-spacing:0px;fill:#000000;fill-opacity:1;stroke:none;stroke-width:0.26458332"
       x="123.19519"
       y="247.50906"
       id="text109"><tspan
         sodipodi:role="line"
         id="tspan107"
         x="123.19519"
         y="247.50906"
         style="stroke-width:0.26458332">$0$</tspan></text>
    <text
       xml:space="preserve"
       style="font-style:normal;font-weight:normal;font-size:5.64444447px;line-height:1.25;font-family:sans-serif;letter-spacing:0px;word-spacing:0px;fill:#000000;fill-opacity:1;stroke:none;stroke-width:0.26458332"
       x="133.04016"
       y="226.75479"
       id="text113"><tspan
         sodipodi:role="line"
         id="tspan111"
         x="133.04016"
         y="226.75479"
         style="stroke-width:0.26458332">$1$</tspan></text>
    <text
       xml:space="preserve"
       style="font-style:normal;font-weight:normal;font-size:5.64444447px;line-height:1.25;font-family:sans-serif;letter-spacing:0px;word-spacing:0px;fill:#000000;fill-opacity:1;stroke:none;stroke-width:0.26458332"
       x="77.695457"
       y="246.9769"
       id="text117"><tspan
         sodipodi:role="line"
         id="tspan115"
         x="77.695457"
         y="246.9769"
         style="stroke-width:0.26458332">$1$</tspan></text>
    <text
       xml:space="preserve"
       style="font-style:normal;font-weight:normal;font-size:5.64444447px;line-height:1.25;font-family:sans-serif;letter-spacing:0px;word-spacing:0px;fill:#000000;fill-opacity:1;stroke:none;stroke-width:0.26458332"
       x="122.13087"
       y="216.90982"
       id="text121"><tspan
         sodipodi:role="line"
         id="tspan119"
         x="122.13087"
         y="216.90982"
         style="stroke-width:0.26458332">$0$</tspan></text>
    <text
       xml:space="preserve"
       style="font-style:normal;font-weight:normal;font-size:5.64444447px;line-height:1.25;font-family:sans-serif;letter-spacing:0px;word-spacing:0px;fill:#000000;fill-opacity:1;stroke:none;stroke-width:0.26458332"
       x="142.88515"
       y="285.0264"
       id="text125"><tspan
         sodipodi:role="line"
         id="tspan123"
         x="142.88515"
         y="285.0264"
         style="stroke-width:0.26458332">$1$</tspan></text>
    <text
       xml:space="preserve"
       style="font-style:normal;font-weight:normal;font-size:5.64444447px;line-height:1.25;font-family:sans-serif;letter-spacing:0px;word-spacing:0px;fill:#000000;fill-opacity:1;stroke:none;stroke-width:0.26458332"
       x="118.40575"
       y="275.71356"
       id="text129"><tspan
         sodipodi:role="line"
         id="tspan127"
         x="118.40575"
         y="275.71356"
         style="stroke-width:0.26458332">$0$</tspan></text>
  </g>
</svg>
