<?xml version="1.0" encoding="UTF-8" standalone="no"?>
<!-- Created with Inkscape (http://www.inkscape.org/) -->

<svg
   xmlns:dc="http://purl.org/dc/elements/1.1/"
   xmlns:cc="http://creativecommons.org/ns#"
   xmlns:rdf="http://www.w3.org/1999/02/22-rdf-syntax-ns#"
   xmlns:svg="http://www.w3.org/2000/svg"
   xmlns="http://www.w3.org/2000/svg"
   xmlns:sodipodi="http://sodipodi.sourceforge.net/DTD/sodipodi-0.dtd"
   xmlns:inkscape="http://www.inkscape.org/namespaces/inkscape"
   width="240mm"
   height="120mm"
   viewBox="0 0 240 120"
   version="1.1"
   id="svg8"
   inkscape:version="0.92.5 (2060ec1f9f, 2020-04-08)"
   sodipodi:docname="transformed-pda-state-transition.svg">
  <defs
     id="defs2" />
  <sodipodi:namedview
     id="base"
     pagecolor="#ffffff"
     bordercolor="#666666"
     borderopacity="1.0"
     inkscape:pageopacity="0.0"
     inkscape:pageshadow="2"
     inkscape:zoom="0.99437388"
     inkscape:cx="485.83882"
     inkscape:cy="182.72055"
     inkscape:document-units="mm"
     inkscape:current-layer="layer1"
     showgrid="false"
     showborder="true"
     width="200mm"
     showguides="true"
     inkscape:guide-bbox="true"
     inkscape:window-width="924"
     inkscape:window-height="1016"
     inkscape:window-x="72"
     inkscape:window-y="27"
     inkscape:window-maximized="0">
    <inkscape:grid
       type="xygrid"
       id="grid815"
       units="mm"
       spacingx="10"
       spacingy="10"
       empspacing="4"
       dotted="false" />
  </sodipodi:namedview>
  <metadata
     id="metadata5">
    <rdf:RDF>
      <cc:Work
         rdf:about="">
        <dc:format>image/svg+xml</dc:format>
        <dc:type
           rdf:resource="http://purl.org/dc/dcmitype/StillImage" />
        <dc:title />
      </cc:Work>
    </rdf:RDF>
  </metadata>
  <g
     inkscape:label="Layer 1"
     inkscape:groupmode="layer"
     id="layer1"
     transform="translate(0,-177)">
    <circle
       style="opacity:1;fill:#1a1a1a;fill-opacity:0;stroke:#000000;stroke-width:0.26499999;stroke-miterlimit:4;stroke-dasharray:none;stroke-opacity:1"
       id="path8"
       cx="59.601994"
       cy="242.18744"
       r="5.3216066" />
    <circle
       style="opacity:1;fill:#1a1a1a;fill-opacity:0;stroke:#000000;stroke-width:0.26499999;stroke-miterlimit:4;stroke-dasharray:none;stroke-opacity:1"
       id="path8-3"
       cx="85.145706"
       cy="223.8279"
       r="5.3216066" />
    <circle
       style="opacity:1;fill:#1a1a1a;fill-opacity:0;stroke:#000000;stroke-width:0.26499999;stroke-miterlimit:4;stroke-dasharray:none;stroke-opacity:1"
       id="path8-6"
       cx="113.6163"
       cy="217.44197"
       r="5.3216066" />
    <circle
       style="opacity:1;fill:#1a1a1a;fill-opacity:0;stroke:#000000;stroke-width:0.26499999;stroke-miterlimit:4;stroke-dasharray:none;stroke-opacity:1"
       id="path8-7"
       cx="172.95222"
       cy="223.29575"
       r="5.3216066" />
    <circle
       style="opacity:1;fill:#1a1a1a;fill-opacity:0;stroke:#000000;stroke-width:0.26499999;stroke-miterlimit:4;stroke-dasharray:none;stroke-opacity:1"
       id="path8-5"
       cx="192.64217"
       cy="238.99448"
       r="5.3216066" />
    <path
       style="fill:none;stroke:#000000;stroke-width:0.26458332px;stroke-linecap:butt;stroke-linejoin:miter;stroke-opacity:1"
       d="m 63.859279,237.39801 c 3.156043,-4.94398 7.389532,-9.53841 12.239694,-12.77186 1.189034,-0.79269 2.541328,-1.33944 3.725124,-2.12864 0.330163,-0.22011 0.948827,-0.79824 1.330402,-0.79824 0.177387,0 0.709549,0 0.532161,0 -1.651894,0 -3.500112,2.31972 -5.321606,2.92688 -0.707089,0.2357 -1.908832,0 -2.660804,0 -0.266081,0 -0.79824,0.26608 -0.79824,0 0,-0.26608 0.532159,0 0.79824,0 0.671981,0 1.250487,-0.32813 1.862564,-0.53216 0.09559,-0.0319 3.991205,-1.39457 3.991205,-0.79824 0,0.62065 -1.182778,1.39052 -1.330402,2.12864 -0.35088,1.7544 -0.532162,3.50662 -0.532162,5.32161"
       id="path52"
       inkscape:connector-curvature="0" />
    <path
       style="fill:none;stroke:#000000;stroke-width:0.26458332px;stroke-linecap:butt;stroke-linejoin:miter;stroke-opacity:1"
       d="m 90.733391,222.49751 c 4.289251,-3.37657 9.857449,-3.45904 15.166579,-3.45904 0.95519,0 1.90596,-0.26608 2.92688,-0.26608 0.35478,0 1.06432,0.35477 1.06432,0 0,-0.12543 -0.15389,-0.20999 -0.26608,-0.26608 -1.7146,-0.85731 -4.09214,-1.98919 -6.11985,-2.39473 -0.0511,-0.0102 -2.39472,0.007 -2.39472,0 0,-0.0551 5.61814,0.0305 6.11985,0.53216 1.00826,1.00827 -1.96671,5.79598 -2.39472,6.65201 -0.13989,0.27978 0,1.0108 0,1.3304"
       id="path54"
       inkscape:connector-curvature="0" />
    <path
       style="fill:none;stroke:#000000;stroke-width:0.26458332px;stroke-linecap:butt;stroke-linejoin:miter;stroke-opacity:1"
       d="m 119.20399,215.57942 c 1.00184,-0.73471 2.03901,-0.53216 3.19297,-0.53216 0.88693,0 1.77387,0 2.6608,0 2.34034,0 4.03902,-0.42753 0.53216,-1.59648 -0.9924,-0.3308 -1.44237,-1.51943 -2.12864,-1.86256 -0.0488,-0.0244 -0.79824,0.0195 -0.79824,0 0,-0.0185 1.40333,1.4434 2.6608,1.86256 0.39841,0.1328 2.92689,1.02353 2.92689,1.59648 0,0.36569 -0.73724,0.10254 -1.06433,0.26608 -1.59912,0.79957 -1.32285,1.3304 -3.19296,1.3304"
       id="path56"
       inkscape:connector-curvature="0" />
    <path
       style="fill:none;stroke:#000000;stroke-width:0.26458332px;stroke-linecap:butt;stroke-linejoin:miter;stroke-opacity:1"
       d="m 158.58388,218.50631 c 1.19612,-0.32778 1.67746,0.28632 2.66081,0.53216 1.23664,0.30916 3.14133,1.0385 4.25728,1.59648 0.16065,0.0803 0.67524,-0.123 0.79824,0 0.13304,0.13304 0.13304,0.39912 0.26608,0.53216 0.21955,0.21954 2.21156,0.71533 2.12865,0.79824 -0.79108,0.79107 -1.50815,-2.21752 -1.86257,-2.39472 -0.60617,-0.30309 0.0591,0.69476 0.26608,0.79824 0.93897,0.46948 2.02224,1.3304 0.26608,1.3304 -0.6469,0 -3.63858,0.093 -3.9912,0.79824"
       id="path58"
       inkscape:connector-curvature="0" />
    <path
       style="fill:none;stroke:#000000;stroke-width:0.26458332px;stroke-linecap:butt;stroke-linejoin:miter;stroke-opacity:1"
       d="m 176.41127,225.69047 c 1.26501,0.94876 0.75074,0.48467 1.59648,1.3304 0.97733,0.97734 1.99997,1.99998 2.92688,2.92689 0.47451,0.47451 0.73049,0.1461 1.3304,0.26608 0.46043,0.0921 3.87577,2.27929 4.25729,2.6608 0.37994,0.37995 2.65271,2.13674 2.39472,2.39473 -0.4624,0.4624 -1.24208,-0.70993 -1.3304,-0.79824 -0.44501,-0.44501 -1.06432,0.33522 -1.06432,0 0,-0.29195 1.97454,0.22755 2.12864,0.26607 0.51189,0.12798 1.05332,0.26609 1.59648,0.26609 0.17739,0 0.53216,-0.17739 0.53216,0 0,0.0869 -1.3304,-0.9016 -1.3304,-1.33041 0,-0.73024 -0.19202,-1.25634 -0.53216,-1.59648"
       id="path60"
       inkscape:connector-curvature="0" />
    <text
       xml:space="preserve"
       style="font-style:normal;font-weight:normal;font-size:5.64444447px;line-height:1.25;font-family:sans-serif;letter-spacing:0px;word-spacing:0px;fill:#000000;fill-opacity:1;stroke:none;stroke-width:0.26458332"
       x="56.941189"
       y="244.05"
       id="text64"><tspan
         sodipodi:role="line"
         id="tspan62"
         x="56.941189"
         y="244.05"
         style="stroke-width:0.26458332">$q$</tspan></text>
    <text
       xml:space="preserve"
       style="font-style:normal;font-weight:normal;font-size:5.64444447px;line-height:1.25;font-family:sans-serif;letter-spacing:0px;word-spacing:0px;fill:#000000;fill-opacity:1;stroke:none;stroke-width:0.26458332"
       x="57.739429"
       y="229.41559"
       id="text68"><tspan
         sodipodi:role="line"
         id="tspan66"
         x="57.739429"
         y="229.41559"
         style="stroke-width:0.26458332">$a, B/\epsilon$</tspan></text>
    <text
       xml:space="preserve"
       style="font-style:normal;font-weight:normal;font-size:5.64444447px;line-height:1.25;font-family:sans-serif;letter-spacing:0px;word-spacing:0px;fill:#000000;fill-opacity:1;stroke:none;stroke-width:0.26458332"
       x="91.265556"
       y="215.57941"
       id="text72"><tspan
         sodipodi:role="line"
         id="tspan70"
         x="91.265556"
         y="215.57941"
         style="stroke-width:0.26458332">$\epsilon, \epsilon / \alpha[1]$</tspan></text>
    <text
       xml:space="preserve"
       style="font-style:normal;font-weight:normal;font-size:5.64444447px;line-height:1.25;font-family:sans-serif;letter-spacing:0px;word-spacing:0px;fill:#000000;fill-opacity:1;stroke:none;stroke-width:0.26458332"
       x="188.91704"
       y="232.07639"
       id="text76"><tspan
         sodipodi:role="line"
         id="tspan74"
         x="188.91704"
         y="237.07039"
         style="stroke-width:0.26458332" /></text>
    <text
       xml:space="preserve"
       style="font-style:normal;font-weight:normal;font-size:5.64444447px;line-height:1.25;font-family:sans-serif;letter-spacing:0px;word-spacing:0px;fill:#000000;fill-opacity:1;stroke:none;stroke-width:0.26458332"
       x="183.32936"
       y="227.28694"
       id="text80"><tspan
         sodipodi:role="line"
         id="tspan78"
         x="183.32936"
         y="227.28694"
         style="stroke-width:0.26458332">$\epsilon, \epsilon, \alpha[k]$</tspan></text>
    <text
       xml:space="preserve"
       style="font-style:normal;font-weight:normal;font-size:5.64444447px;line-height:1.25;font-family:sans-serif;letter-spacing:0px;word-spacing:0px;fill:#000000;fill-opacity:1;stroke:none;stroke-width:0.26458332"
       x="189.98135"
       y="241.12312"
       id="text84"><tspan
         sodipodi:role="line"
         id="tspan82"
         x="189.98135"
         y="241.12312"
         style="stroke-width:0.26458332">$q'$</tspan></text>
  </g>
</svg>
