<?xml version="1.0" encoding="UTF-8" standalone="no"?>
<!-- Created with Inkscape (http://www.inkscape.org/) -->

<svg
   xmlns:dc="http://purl.org/dc/elements/1.1/"
   xmlns:cc="http://creativecommons.org/ns#"
   xmlns:rdf="http://www.w3.org/1999/02/22-rdf-syntax-ns#"
   xmlns:svg="http://www.w3.org/2000/svg"
   xmlns="http://www.w3.org/2000/svg"
   xmlns:sodipodi="http://sodipodi.sourceforge.net/DTD/sodipodi-0.dtd"
   xmlns:inkscape="http://www.inkscape.org/namespaces/inkscape"
   width="240mm"
   height="120mm"
   viewBox="0 0 240 120"
   version="1.1"
   id="svg8"
   inkscape:version="0.92.5 (2060ec1f9f, 2020-04-08)"
   sodipodi:docname="lasttwofsm.svg">
  <defs
     id="defs2" />
  <sodipodi:namedview
     id="base"
     pagecolor="#ffffff"
     bordercolor="#666666"
     borderopacity="1.0"
     inkscape:pageopacity="0.0"
     inkscape:pageshadow="2"
     inkscape:zoom="0.9943739"
     inkscape:cx="189.90306"
     inkscape:cy="330.38738"
     inkscape:document-units="mm"
     inkscape:current-layer="layer1"
     showgrid="false"
     showborder="true"
     width="200mm"
     showguides="true"
     inkscape:guide-bbox="true"
     inkscape:window-width="1848"
     inkscape:window-height="1016"
     inkscape:window-x="72"
     inkscape:window-y="27"
     inkscape:window-maximized="1">
    <inkscape:grid
       type="xygrid"
       id="grid815"
       units="mm"
       spacingx="10"
       spacingy="10"
       empspacing="4"
       dotted="false" />
  </sodipodi:namedview>
  <metadata
     id="metadata5">
    <rdf:RDF>
      <cc:Work
         rdf:about="">
        <dc:format>image/svg+xml</dc:format>
        <dc:type
           rdf:resource="http://purl.org/dc/dcmitype/StillImage" />
        <dc:title></dc:title>
      </cc:Work>
    </rdf:RDF>
  </metadata>
  <g
     inkscape:label="Layer 1"
     inkscape:groupmode="layer"
     id="layer1"
     transform="translate(0,-177)">
    <circle
       style="opacity:1;fill:#1a1a1a;fill-opacity:0;stroke:#000000;stroke-width:0.26499999;stroke-miterlimit:4;stroke-dasharray:none;stroke-opacity:1"
       id="path8"
       cx="63.19408"
       cy="239.12753"
       r="4.6564059" />
    <circle
       style="opacity:1;fill:#1a1a1a;fill-opacity:0;stroke:#000000;stroke-width:0.26499999;stroke-miterlimit:4;stroke-dasharray:none;stroke-opacity:1"
       id="path8-3"
       cx="90.201233"
       cy="212.65254"
       r="4.6564059" />
    <circle
       style="opacity:1;fill:#1a1a1a;fill-opacity:0;stroke:#000000;stroke-width:0.26499999;stroke-miterlimit:4;stroke-dasharray:none;stroke-opacity:1"
       id="path8-6"
       cx="87.274353"
       cy="262.94171"
       r="4.6564059" />
    <circle
       style="opacity:1;fill:#1a1a1a;fill-opacity:0;stroke:#000000;stroke-width:0.26499999;stroke-miterlimit:4;stroke-dasharray:none;stroke-opacity:1"
       id="path8-7"
       cx="120.00223"
       cy="216.11157"
       r="4.6564059" />
    <circle
       style="opacity:1;fill:#1a1a1a;fill-opacity:0;stroke:#000000;stroke-width:0.26499999;stroke-miterlimit:4;stroke-dasharray:none;stroke-opacity:1"
       id="path8-5"
       cx="150.86755"
       cy="213.45078"
       r="4.6564059" />
    <circle
       style="opacity:1;fill:#1a1a1a;fill-opacity:0;stroke:#000000;stroke-width:0.26499999;stroke-miterlimit:4;stroke-dasharray:none;stroke-opacity:1"
       id="path8-35"
       cx="121.33263"
       cy="248.3073"
       r="4.6564059" />
    <circle
       style="opacity:1;fill:#1a1a1a;fill-opacity:0;stroke:#000000;stroke-width:0.26499999;stroke-miterlimit:4;stroke-dasharray:none;stroke-opacity:1"
       id="path8-62"
       cx="153.26227"
       cy="245.38042"
       r="4.6564059" />
    <path
       style="fill:none;stroke:#000000;stroke-width:0.26458332px;stroke-linecap:butt;stroke-linejoin:miter;stroke-opacity:1"
       d="m 65.26627,235.0479 c -0.544257,-4.08523 20.602119,-17.57364 20.602119,-18.72065 0,-0.22077 -2.130576,0.51357 -2.257766,0.56444 -0.440592,0.17624 -1.885635,0.18815 -1.411105,0.18815 3.745256,0 5.958133,-3.0576 2.163694,2.63406"
       id="path55"
       inkscape:connector-curvature="0" />
    <path
       style="fill:none;stroke:#000000;stroke-width:0.26458332px;stroke-linecap:butt;stroke-linejoin:miter;stroke-opacity:1"
       d="m 66.207006,243.79674 c 3.298915,5.51203 6.373476,14.00521 12.605861,17.1214 0.452935,0.22647 3.386651,1.10832 3.386651,1.50518 0,0.0814 -5.13997,-0.94074 -4.515533,-0.94074 3.6814,0 6.284865,2.60696 4.42146,-0.18815 -0.859761,-1.28964 -1.50854,-2.7315 -2.539986,-3.76294"
       id="path57"
       inkscape:connector-curvature="0" />
    <text
       xml:space="preserve"
       style="font-style:normal;font-weight:normal;font-size:5.64444447px;line-height:1.25;font-family:sans-serif;letter-spacing:0px;word-spacing:0px;fill:#000000;fill-opacity:1;stroke:none;stroke-width:0.26458332"
       x="60.468517"
       y="239.46936"
       id="text61"><tspan
         sodipodi:role="line"
         id="tspan59"
         x="60.468517"
         y="239.46936"
         style="stroke-width:0.26458332">$\epsilon$</tspan></text>
    <text
       xml:space="preserve"
       style="font-style:normal;font-weight:normal;font-size:5.64444447px;line-height:1.25;font-family:sans-serif;letter-spacing:0px;word-spacing:0px;fill:#000000;fill-opacity:1;stroke:none;stroke-width:0.26458332"
       x="88.032082"
       y="211.99986"
       id="text65"><tspan
         sodipodi:role="line"
         id="tspan63"
         x="88.032082"
         y="211.99986"
         style="stroke-width:0.26458332">$a$</tspan></text>
    <text
       xml:space="preserve"
       style="font-style:normal;font-weight:normal;font-size:5.64444447px;line-height:1.25;font-family:sans-serif;letter-spacing:0px;word-spacing:0px;fill:#000000;fill-opacity:1;stroke:none;stroke-width:0.26458332"
       x="84.457283"
       y="264.30478"
       id="text69"><tspan
         sodipodi:role="line"
         id="tspan67"
         x="84.457283"
         y="264.30478"
         style="stroke-width:0.26458332">$b$</tspan></text>
    <text
       xml:space="preserve"
       style="font-style:normal;font-weight:normal;font-size:5.64444447px;line-height:1.25;font-family:sans-serif;letter-spacing:0px;word-spacing:0px;fill:#000000;fill-opacity:1;stroke:none;stroke-width:0.26458332"
       x="116.44231"
       y="217.36206"
       id="text73"><tspan
         sodipodi:role="line"
         id="tspan71"
         x="116.44231"
         y="217.36206"
         style="stroke-width:0.26458332">$aa$</tspan></text>
    <text
       xml:space="preserve"
       style="font-style:normal;font-weight:normal;font-size:5.64444447px;line-height:1.25;font-family:sans-serif;letter-spacing:0px;word-spacing:0px;fill:#000000;fill-opacity:1;stroke:none;stroke-width:0.26458332"
       x="147.67476"
       y="215.10429"
       id="text77"><tspan
         sodipodi:role="line"
         id="tspan75"
         x="147.67476"
         y="215.10429"
         style="stroke-width:0.26458332">$ba$</tspan></text>
    <text
       xml:space="preserve"
       style="font-style:normal;font-weight:normal;font-size:5.64444447px;line-height:1.25;font-family:sans-serif;letter-spacing:0px;word-spacing:0px;fill:#000000;fill-opacity:1;stroke:none;stroke-width:0.26458332"
       x="117.66527"
       y="250.28783"
       id="text81"><tspan
         sodipodi:role="line"
         id="tspan79"
         x="117.66527"
         y="250.28783"
         style="stroke-width:0.26458332">$ab$</tspan></text>
    <text
       xml:space="preserve"
       style="font-style:normal;font-weight:normal;font-size:5.64444447px;line-height:1.25;font-family:sans-serif;letter-spacing:0px;word-spacing:0px;fill:#000000;fill-opacity:1;stroke:none;stroke-width:0.26458332"
       x="149.274"
       y="246.90117"
       id="text85"><tspan
         sodipodi:role="line"
         id="tspan83"
         x="149.274"
         y="246.90117"
         style="stroke-width:0.26458332">$bb$</tspan></text>
    <path
       style="fill:none;stroke:#000000;stroke-width:0.26458332px;stroke-linecap:butt;stroke-linejoin:miter;stroke-opacity:1"
       d="m 94.899454,213.78726 c 5.149026,-1.04976 10.400596,-1.5121 15.522146,-0.65851 0.53566,0.0893 4.05759,2.04477 4.13924,1.88147 0.15817,-0.31634 -1.07282,-1.77338 -0.75259,-1.69332 0.5838,0.14595 0.76681,1.04903 1.12888,1.4111 1.75314,1.75314 -0.83249,1.03481 -2.53999,1.03481"
       id="path87"
       inkscape:connector-curvature="0" />
    <path
       style="fill:none;stroke:#000000;stroke-width:0.26458332px;stroke-linecap:butt;stroke-linejoin:miter;stroke-opacity:1"
       d="m 92.265395,216.70354 c 1.913276,8.77572 6.874314,16.10598 13.546595,21.82508 1.98835,1.7043 3.99347,3.10838 6.02071,4.79775 0.18226,0.15189 3.38735,2.06893 3.19851,2.25777 -0.52982,0.52982 -2.58056,-0.47037 -2.44592,-0.47037 0.57862,0 4.60961,0.69922 4.60961,0.94074 0,0.11006 -1.4075,-1.85623 -1.50518,-2.53999"
       id="path89"
       inkscape:connector-curvature="0" />
    <path
       style="fill:none;stroke:#000000;stroke-width:0.26458332px;stroke-linecap:butt;stroke-linejoin:miter;stroke-opacity:1"
       d="m 91.230583,266.56255 c 3.365775,1.37288 6.785218,2.6012 10.159947,3.95109 13.97858,5.59144 28.09677,-2.1115 39.32277,-9.5955 1.23044,-0.82029 10.31686,-9.62674 9.40736,-10.53625 -0.0353,-0.0353 -2.53999,1.36212 -2.53999,1.22296 0,-1.10861 1.69333,-1.62749 1.69333,2.82221"
       id="path93"
       inkscape:connector-curvature="0" />
    <path
       style="fill:none;stroke:#000000;stroke-width:0.26458332px;stroke-linecap:butt;stroke-linejoin:miter;stroke-opacity:1"
       d="m 88.408376,267.40922 c 16.084784,13.0821 35.570914,9.09008 53.527884,3.10442 6.22606,-2.07535 13.07474,-8.93699 19.28509,-8.93699 2.2113,-2.36468 5.50498,-3.99455 7.52589,-6.7733 4.38008,-6.02261 10.74926,-18.9697 5.36219,-26.15246 -1.61916,-2.15888 -18.3052,-13.30352 -19.37916,-12.22957 -0.10524,0.10524 1.86419,2.53999 1.7874,2.53999 -0.40765,0 -0.18212,-0.84063 -0.47037,-1.12888 -0.10859,-0.10859 -1.24647,-1.10537 -1.03481,-1.31703 0.35435,-0.35435 2.49174,0 3.10443,0"
       id="path95"
       inkscape:connector-curvature="0" />
    <path
       style="fill:none;stroke:#000000;stroke-width:0.26458332px;stroke-linecap:butt;stroke-linejoin:miter;stroke-opacity:1"
       d="m 118.41786,211.34135 c -0.75067,-2.00051 -1.59926,-4.13605 -1.59926,-6.30293 0,-3.01846 4.58921,-5.7793 6.30293,-2.35184 0.8185,1.637 0.13049,4.87666 -0.37629,6.397 -0.26254,0.78764 -0.47037,3.27616 -0.47037,2.44592 0,-0.84667 0,-3.38665 0,-2.53999 0,3.27682 -0.27645,1.74259 0.47037,0"
       id="path97"
       inkscape:connector-curvature="0" />
    <path
       style="fill:none;stroke:#000000;stroke-width:0.26458332px;stroke-linecap:butt;stroke-linejoin:miter;stroke-opacity:1"
       d="m 118.79415,220.65464 c -1.95442,6.35077 -0.56444,12.83254 -0.56444,19.09694 0,2.12083 0.94084,4.32753 0.94074,4.32738 -0.56792,-0.85187 -2.43493,-2.72813 -1.41111,-2.72813 0.97855,0 2.16369,5.96677 2.16369,-0.28222"
       id="path99"
       inkscape:connector-curvature="0" />
    <path
       style="fill:none;stroke:#000000;stroke-width:0.26458332px;stroke-linecap:butt;stroke-linejoin:miter;stroke-opacity:1"
       d="m 123.02746,243.42045 c -0.50653,-10.85976 6.34953,-16.79849 13.64067,-23.04803 1.85286,-1.58817 3.80954,-2.92947 5.92664,-4.13924 1.22816,-0.70181 2.34647,-1.54066 3.66887,-2.06962 0.30397,-0.12159 1.26813,-0.28222 0.94074,-0.28222 -0.53308,0 -1.06617,0 -1.59925,0 -3.57236,0 0.39452,-0.45214 0.84666,0 0.39762,0.39762 -1.05958,2.0647 -1.22296,2.44591"
       id="path101"
       inkscape:connector-curvature="0" />
    <path
       style="fill:none;stroke:#000000;stroke-width:0.26458332px;stroke-linecap:butt;stroke-linejoin:miter;stroke-opacity:1"
       d="m 148.05104,217.07984 c -3.247,10.23263 -9.13558,20.7589 -18.43842,26.34061 -0.48814,0.29288 -3.11714,2.15099 -3.66888,1.59925 -0.12728,-0.12729 0.56445,-1.01082 0.56445,-1.22296 0,-0.58916 -0.75259,1.01009 -0.75259,1.59925 0,0.83025 1.61567,-0.47037 2.44591,-0.47037"
       id="path103"
       inkscape:connector-curvature="0" />
    <path
       style="fill:none;stroke:#000000;stroke-width:0.26458332px;stroke-linecap:butt;stroke-linejoin:miter;stroke-opacity:1"
       d="m 123.9682,252.63966 c 5.9473,1.77457 12.38276,0.88852 17.96806,-1.50518 2.95652,-1.26708 6.30293,-4.2503 6.30293,-3.66887 0,0.75259 -2.25777,0.75259 -2.25777,0 0,-0.47036 0.94074,0 1.41111,0 0.47037,0 1.4111,-0.47036 1.4111,0 0,0.19029 -2.12133,2.19423 -2.35184,2.53999"
       id="path105"
       inkscape:connector-curvature="0" />
    <path
       style="fill:none;stroke:#000000;stroke-width:0.26458332px;stroke-linecap:butt;stroke-linejoin:miter;stroke-opacity:1"
       d="m 153.50731,240.22195 c 0.84112,-7.12207 3.70182,-14.24977 -0.47037,-20.50805 -0.2568,-0.3852 -0.0622,-1.207 -0.65851,-1.50518 -0.87128,-0.43563 -0.18815,3.8904 -0.18815,2.91628 0,-2.99156 -0.78205,-3.31443 2.25777,-2.44591"
       id="path107"
       inkscape:connector-curvature="0" />
    <path
       style="fill:none;stroke:#000000;stroke-width:0.26458332px;stroke-linecap:butt;stroke-linejoin:miter;stroke-opacity:1"
       d="m 157.36433,241.8212 c 4.80664,2.35776 15.20491,-9.00919 7.80811,-10.06588 -1.90625,-0.27232 -3.40038,-0.25517 -5.07998,0.75259 -1.74876,1.04926 -3.62582,3.26549 -4.04516,5.3622 -0.17998,0.89988 -0.65852,1.82998 -0.65852,2.72813 0,0.15679 0,0.62716 0,0.47037 0,-2.20326 0.2884,-3.61805 -0.0941,-0.94074 -0.0379,0.0126 0.0285,0.75259 0,0.75259 -0.65926,0 0.42461,-1.28094 0.84666,-1.7874"
       id="path109"
       inkscape:connector-curvature="0" />
    <path
       style="fill:none;stroke:#000000;stroke-width:0.26458332px;stroke-linecap:butt;stroke-linejoin:miter;stroke-opacity:1"
       d="m 145.98142,211.34135 c -5.19414,-4.29919 -11.04081,-3.03431 -16.7451,-0.75259 -0.29575,0.1183 -6.39701,1.91592 -6.39701,1.31703 0,-0.67328 1.21007,-0.59433 1.7874,-0.94073 0.17269,-0.10362 1.33729,-1.48493 1.50518,-1.31704 1.15429,1.1543 -6.16845,2.53999 -0.56444,2.53999"
       id="path111"
       inkscape:connector-curvature="0" />
    <text
       xml:space="preserve"
       style="font-style:normal;font-weight:normal;font-size:5.64444447px;line-height:1.25;font-family:sans-serif;letter-spacing:0px;word-spacing:0px;fill:#000000;fill-opacity:1;stroke:none;stroke-width:0.26458332"
       x="70.158096"
       y="224.41759"
       id="text115"><tspan
         sodipodi:role="line"
         id="tspan113"
         x="70.158096"
         y="224.41759"
         style="stroke-width:0.26458332">$a$</tspan></text>
    <text
       xml:space="preserve"
       style="font-style:normal;font-weight:normal;font-size:5.64444447px;line-height:1.25;font-family:sans-serif;letter-spacing:0px;word-spacing:0px;fill:#000000;fill-opacity:1;stroke:none;stroke-width:0.26458332"
       x="70.722542"
       y="250.75819"
       id="text119"><tspan
         sodipodi:role="line"
         id="tspan117"
         x="70.722542"
         y="250.75819"
         style="stroke-width:0.26458332">$b$</tspan></text>
    <text
       xml:space="preserve"
       style="font-style:normal;font-weight:normal;font-size:5.64444447px;line-height:1.25;font-family:sans-serif;letter-spacing:0px;word-spacing:0px;fill:#000000;fill-opacity:1;stroke:none;stroke-width:0.26458332"
       x="116.25417"
       y="268.63217"
       id="text123"><tspan
         sodipodi:role="line"
         id="tspan121"
         x="116.25417"
         y="268.63217"
         style="stroke-width:0.26458332">$b$</tspan></text>
    <text
       xml:space="preserve"
       style="font-style:normal;font-weight:normal;font-size:5.64444447px;line-height:1.25;font-family:sans-serif;letter-spacing:0px;word-spacing:0px;fill:#000000;fill-opacity:1;stroke:none;stroke-width:0.26458332"
       x="142.5007"
       y="265.24551"
       id="text127"><tspan
         sodipodi:role="line"
         id="tspan125"
         x="142.5007"
         y="265.24551"
         style="stroke-width:0.26458332">$a$</tspan></text>
    <text
       xml:space="preserve"
       style="font-style:normal;font-weight:normal;font-size:5.64444447px;line-height:1.25;font-family:sans-serif;letter-spacing:0px;word-spacing:0px;fill:#000000;fill-opacity:1;stroke:none;stroke-width:0.26458332"
       x="162.16208"
       y="229.12126"
       id="text131"><tspan
         sodipodi:role="line"
         id="tspan129"
         x="162.16208"
         y="229.12126"
         style="stroke-width:0.26458332">$b$</tspan></text>
    <text
       xml:space="preserve"
       style="font-style:normal;font-weight:normal;font-size:5.64444447px;line-height:1.25;font-family:sans-serif;letter-spacing:0px;word-spacing:0px;fill:#000000;fill-opacity:1;stroke:none;stroke-width:0.26458332"
       x="151.15547"
       y="227.99239"
       id="text135"><tspan
         sodipodi:role="line"
         id="tspan133"
         x="151.15547"
         y="227.99239"
         style="stroke-width:0.26458332">$a$</tspan></text>
    <text
       xml:space="preserve"
       style="font-style:normal;font-weight:normal;font-size:5.64444447px;line-height:1.25;font-family:sans-serif;letter-spacing:0px;word-spacing:0px;fill:#000000;fill-opacity:1;stroke:none;stroke-width:0.26458332"
       x="138.2674"
       y="237.02345"
       id="text139"><tspan
         sodipodi:role="line"
         id="tspan137"
         x="138.2674"
         y="237.02345"
         style="stroke-width:0.26458332">$b$</tspan></text>
    <text
       xml:space="preserve"
       style="font-style:normal;font-weight:normal;font-size:5.64444447px;line-height:1.25;font-family:sans-serif;letter-spacing:0px;word-spacing:0px;fill:#000000;fill-opacity:1;stroke:none;stroke-width:0.26458332"
       x="127.26077"
       y="224.98203"
       id="text143"><tspan
         sodipodi:role="line"
         id="tspan141"
         x="127.26077"
         y="224.98203"
         style="stroke-width:0.26458332">$a$</tspan></text>
    <text
       xml:space="preserve"
       style="font-style:normal;font-weight:normal;font-size:5.64444447px;line-height:1.25;font-family:sans-serif;letter-spacing:0px;word-spacing:0px;fill:#000000;fill-opacity:1;stroke:none;stroke-width:0.26458332"
       x="135.06889"
       y="206.35545"
       id="text147"><tspan
         sodipodi:role="line"
         id="tspan145"
         x="135.06889"
         y="206.35545"
         style="stroke-width:0.26458332">$a$</tspan></text>
    <text
       xml:space="preserve"
       style="font-style:normal;font-weight:normal;font-size:5.64444447px;line-height:1.25;font-family:sans-serif;letter-spacing:0px;word-spacing:0px;fill:#000000;fill-opacity:1;stroke:none;stroke-width:0.26458332"
       x="113.14973"
       y="204.19176"
       id="text151"><tspan
         sodipodi:role="line"
         id="tspan149"
         x="113.14973"
         y="204.19176"
         style="stroke-width:0.26458332">$a$</tspan></text>
    <text
       xml:space="preserve"
       style="font-style:normal;font-weight:normal;font-size:5.64444447px;line-height:1.25;font-family:sans-serif;letter-spacing:0px;word-spacing:0px;fill:#000000;fill-opacity:1;stroke:none;stroke-width:0.26458332"
       x="103.6483"
       y="210.40062"
       id="text155"><tspan
         sodipodi:role="line"
         id="tspan153"
         x="103.6483"
         y="210.40062"
         style="stroke-width:0.26458332">$a$</tspan></text>
    <text
       xml:space="preserve"
       style="font-style:normal;font-weight:normal;font-size:5.64444447px;line-height:1.25;font-family:sans-serif;letter-spacing:0px;word-spacing:0px;fill:#000000;fill-opacity:1;stroke:none;stroke-width:0.26458332"
       x="98.662399"
       y="228.55682"
       id="text159"><tspan
         sodipodi:role="line"
         id="tspan157"
         x="98.662399"
         y="228.55682"
         style="stroke-width:0.26458332">$b$</tspan></text>
    <text
       xml:space="preserve"
       style="font-style:normal;font-weight:normal;font-size:5.64444447px;line-height:1.25;font-family:sans-serif;letter-spacing:0px;word-spacing:0px;fill:#000000;fill-opacity:1;stroke:none;stroke-width:0.26458332"
       x="117.94749"
       y="228.36868"
       id="text163"><tspan
         sodipodi:role="line"
         id="tspan161"
         x="117.94749"
         y="228.36868"
         style="stroke-width:0.26458332">$b$</tspan></text>
    <text
       xml:space="preserve"
       style="font-style:normal;font-weight:normal;font-size:5.64444447px;line-height:1.25;font-family:sans-serif;letter-spacing:0px;word-spacing:0px;fill:#000000;fill-opacity:1;stroke:none;stroke-width:0.26458332"
       x="135.3511"
       y="251.32263"
       id="text167"><tspan
         sodipodi:role="line"
         id="tspan165"
         x="135.3511"
         y="251.32263"
         style="stroke-width:0.26458332">$b$</tspan></text>
  </g>
</svg>
