<?xml version="1.0" encoding="UTF-8" standalone="no"?>
<!-- Created with Inkscape (http://www.inkscape.org/) -->

<svg
   xmlns:dc="http://purl.org/dc/elements/1.1/"
   xmlns:cc="http://creativecommons.org/ns#"
   xmlns:rdf="http://www.w3.org/1999/02/22-rdf-syntax-ns#"
   xmlns:svg="http://www.w3.org/2000/svg"
   xmlns="http://www.w3.org/2000/svg"
   xmlns:sodipodi="http://sodipodi.sourceforge.net/DTD/sodipodi-0.dtd"
   xmlns:inkscape="http://www.inkscape.org/namespaces/inkscape"
   width="240mm"
   height="120mm"
   viewBox="0 0 240 120"
   version="1.1"
   id="svg8"
   inkscape:version="0.92.5 (2060ec1f9f, 2020-04-08)"
   sodipodi:docname="word-matching.svg">
  <defs
     id="defs2" />
  <sodipodi:namedview
     id="base"
     pagecolor="#ffffff"
     bordercolor="#666666"
     borderopacity="1.0"
     inkscape:pageopacity="0.0"
     inkscape:pageshadow="2"
     inkscape:zoom="0.99437388"
     inkscape:cx="374.87349"
     inkscape:cy="256.53932"
     inkscape:document-units="mm"
     inkscape:current-layer="layer1"
     showgrid="false"
     showborder="true"
     width="200mm"
     showguides="true"
     inkscape:guide-bbox="true"
     inkscape:window-width="1848"
     inkscape:window-height="1016"
     inkscape:window-x="72"
     inkscape:window-y="27"
     inkscape:window-maximized="1">
    <inkscape:grid
       type="xygrid"
       id="grid815"
       units="mm"
       spacingx="10"
       spacingy="10"
       empspacing="4"
       dotted="false" />
  </sodipodi:namedview>
  <metadata
     id="metadata5">
    <rdf:RDF>
      <cc:Work
         rdf:about="">
        <dc:format>image/svg+xml</dc:format>
        <dc:type
           rdf:resource="http://purl.org/dc/dcmitype/StillImage" />
        <dc:title />
      </cc:Work>
    </rdf:RDF>
  </metadata>
  <g
     inkscape:label="Layer 1"
     inkscape:groupmode="layer"
     id="layer1"
     transform="translate(0,-177)">
    <circle
       style="opacity:1;fill:#1a1a1a;fill-opacity:0;stroke:#000000;stroke-width:0.26499999;stroke-miterlimit:4;stroke-dasharray:none;stroke-opacity:1"
       id="path8"
       cx="43.238052"
       cy="255.35843"
       r="6.2528877" />
    <circle
       style="opacity:1;fill:#1a1a1a;fill-opacity:0;stroke:#000000;stroke-width:0.26499999;stroke-miterlimit:4;stroke-dasharray:none;stroke-opacity:1"
       id="path8-3"
       cx="71.575607"
       cy="254.95631"
       r="6.2528877" />
    <circle
       style="opacity:1;fill:#1a1a1a;fill-opacity:0;stroke:#000000;stroke-width:0.26499999;stroke-miterlimit:4;stroke-dasharray:none;stroke-opacity:1"
       id="path8-6"
       cx="97.917557"
       cy="254.15508"
       r="6.2528877" />
    <circle
       style="opacity:1;fill:#1a1a1a;fill-opacity:0;stroke:#000000;stroke-width:0.26499999;stroke-miterlimit:4;stroke-dasharray:none;stroke-opacity:1"
       id="path8-7"
       cx="176.41125"
       cy="251.76035"
       r="6.2528877" />
    <circle
       style="opacity:1;fill:#1a1a1a;fill-opacity:0;stroke:#000000;stroke-width:0.26499999;stroke-miterlimit:4;stroke-dasharray:none;stroke-opacity:1"
       id="path8-5"
       cx="201.15073"
       cy="251.22218"
       r="6.2528877" />
    <ellipse
       style="opacity:1;fill:#1a1a1a;fill-opacity:0;stroke:#000000;stroke-width:0.26499999;stroke-miterlimit:4;stroke-dasharray:none;stroke-opacity:1"
       id="path43"
       cx="112.68502"
       cy="218.63934"
       rx="6.2528877"
       ry="6.5189681" />
    <path
       style="fill:none;stroke:#000000;stroke-width:0.26458332px;stroke-linecap:butt;stroke-linejoin:miter;stroke-opacity:1"
       d="m 22.217708,254.42715 c 2.4656,-2.27406 11.864192,2.3711 14.235297,0 0.232847,-0.23285 -1.708235,-0.96144 -1.862562,-1.06432 -0.366354,-0.24424 -1.985078,-2.13917 -2.261683,-1.86256 -0.716035,0.71603 3.793898,2.33045 3.991205,2.52776 0.903047,0.90305 -2.60176,3.40997 -2.793843,3.85816"
       id="path47"
       inkscape:connector-curvature="0" />
    <path
       style="fill:none;stroke:#000000;stroke-width:0.26458332px;stroke-linecap:butt;stroke-linejoin:miter;stroke-opacity:1"
       d="m 49.490941,254.69323 c 3.912147,-0.0226 7.802329,0.79824 11.707534,0.79824 0.576509,0 1.729523,-0.57651 1.729523,0 0,1.21043 -3.192965,-2.93995 -3.192965,-1.72952 0,0.28756 2.102234,0.6652 2.394723,0.6652 5.693844,0 0.368617,2.0261 -1.59648,3.9912"
       id="path49"
       inkscape:connector-curvature="0" />
    <path
       style="fill:none;stroke:#000000;stroke-width:0.26458332px;stroke-linecap:butt;stroke-linejoin:miter;stroke-opacity:1"
       d="m 77.961536,254.29411 c 2.311516,-2.27213 11.44566,2.12443 13.703138,-0.13304 1.066168,-1.06617 -5.498994,-2.12865 -3.991205,-2.12865 4.988139,0 3.371363,2.48165 2.128642,4.65641"
       id="path51"
       inkscape:connector-curvature="0" />
    <path
       style="fill:none;stroke:#000000;stroke-width:0.26458332px;stroke-linecap:butt;stroke-linejoin:miter;stroke-opacity:1"
       d="m 157.25348,250.16986 c -2.99937,-3.0226 15.78286,3.27709 12.77185,0.26608 -1.35384,-1.35384 -7.50231,-1.3304 -5.58768,-1.3304 7.86617,0 6.09196,1.35828 1.86256,5.58769"
       id="path57"
       inkscape:connector-curvature="0" />
    <path
       style="fill:none;stroke:#000000;stroke-width:0.26458332px;stroke-linecap:butt;stroke-linejoin:miter;stroke-opacity:1"
       d="m 103.50525,253.09675 c 0.008,-0.0782 11.17537,0.0479 11.17537,0 0,-2.26125 -8.38109,-2.92689 -6.11984,-2.92689 6.68641,0 8.87811,3.62766 5.05552,7.45025"
       id="path59"
       inkscape:connector-curvature="0" />
    <path
       style="fill:none;stroke:#000000;stroke-width:0.26458332px;stroke-linecap:butt;stroke-linejoin:miter;stroke-opacity:1"
       d="m 183.32935,251.50027 c 0.0454,-0.58142 10.90929,-0.11706 10.90929,-0.26609 0,-0.98166 -7.32399,-2.73071 -5.05552,-1.59648 4.0496,2.0248 5.86415,0.5197 1.86256,5.32161"
       id="path61"
       inkscape:connector-curvature="0" />
    <path
       style="fill:none;stroke:#000000;stroke-width:0.26458332px;stroke-linecap:butt;stroke-linejoin:miter;stroke-opacity:1"
       d="m 45.765816,249.37162 c 3.341053,-2.15076 6.666582,-4.31135 9.978012,-6.51897 13.915445,-9.27696 25.430731,-11.59923 40.710291,-15.96481 1.09252,-0.31216 9.046731,-2.35309 9.046731,-3.85817 0,-1.28606 -3.85816,1.28605 -3.85816,0 0,-0.0255 2.22238,0.0345 2.39472,0 0.38589,-0.0772 2.21724,-0.84269 2.6608,-0.39912 0.20808,0.20808 -0.63559,0.57637 -0.6652,0.6652 -0.47212,1.41637 -1.23232,2.58359 -1.59648,3.85816"
       id="path63"
       inkscape:connector-curvature="0" />
    <path
       style="fill:none;stroke:#000000;stroke-width:0.26458332px;stroke-linecap:butt;stroke-linejoin:miter;stroke-opacity:1"
       d="m 111.88678,210.92301 c -6.07906,-5.38567 6.83194,-15.33125 8.24849,-8.24849 0.82694,4.1347 -1.73161,6.12194 -4.25728,8.64761 -0.31358,0.31358 -0.79824,1.50779 -0.79824,1.06433 0,-0.98466 -0.58554,-2.92689 0.39911,-2.92689 1.66397,0 -3.25138,4.94753 3.32601,2.12865"
       id="path65"
       inkscape:connector-curvature="0" />
    <path
       style="fill:none;stroke:#000000;stroke-width:0.26458332px;stroke-linecap:butt;stroke-linejoin:miter;stroke-opacity:1"
       d="m 74.901614,249.37162 c 3.348511,-2.92022 34.324366,-19.03448 34.324366,-23.94723 0,-1.05411 -3.05993,1.85235 -3.05993,0.79824 0,-0.37531 2.59648,-1.26168 2.92688,-0.93128 0.35433,0.35433 -1.19736,4.25702 -1.19736,5.32161"
       id="path67"
       inkscape:connector-curvature="0" />
    <path
       style="fill:none;stroke:#000000;stroke-width:0.26458332px;stroke-linecap:butt;stroke-linejoin:miter;stroke-opacity:1"
       d="m 99.381004,248.04122 c 5.211266,-4.20434 12.447516,-6.40245 15.565696,-12.63882 0.55437,-1.10872 1.42129,-7.27176 0,-7.98241 -0.32662,-0.16331 -0.0453,3.99121 -0.13304,3.99121 -0.0845,0 -0.62355,-4.39032 -0.39912,-4.39032 0.13852,0 2.15398,1.17043 2.79385,1.3304"
       id="path69"
       inkscape:connector-curvature="0" />
    <path
       style="fill:none;stroke:#000000;stroke-width:0.26458332px;stroke-linecap:butt;stroke-linejoin:miter;stroke-opacity:1"
       d="m 172.28702,246.84386 c -9.66654,-9.99974 -22.95559,-14.28673 -36.05389,-17.5613 -3.58924,-0.89731 -7.55833,-1.80158 -10.64321,-3.85817 -1.05016,-0.7001 -3.59209,0.0648 -3.59209,-1.19736 0,-0.89795 1.86502,3.06484 1.46344,2.26168 -0.3524,-0.7048 -3.45904,-3.60943 -3.45904,-3.72512 0,-0.39912 0.79824,0 1.19736,0 2.0843,0 4.16859,0 6.25289,0"
       id="path71"
       inkscape:connector-curvature="0" />
    <circle
       style="opacity:1;fill:#1a1a1a;fill-opacity:0;stroke:#000000;stroke-width:0.20426568;stroke-miterlimit:4;stroke-dasharray:none;stroke-opacity:1"
       id="path8-5-3"
       cx="201.15674"
       cy="251.23419"
       r="4.8198133" />
    <path
       style="fill:none;stroke:#000000;stroke-width:0.26458332px;stroke-linecap:butt;stroke-linejoin:miter;stroke-opacity:1"
       d="m 200.49153,244.05001 c -7.27923,-3.72706 -14.62086,-7.87381 -22.61683,-9.97801 -11.56597,-3.04367 -23.29242,-5.62354 -34.85652,-8.51457 -1.49917,-0.37479 -19.15778,-4.82189 -19.15778,-5.58768 0,-0.84142 0.20326,1.79974 0.79824,2.39472 0.8159,0.81591 -0.64907,-2.427 -0.13304,-3.45905 0.0934,-0.18673 2.58868,0 2.92688,0"
       id="path88"
       inkscape:connector-curvature="0" />
    <text
       xml:space="preserve"
       style="font-style:normal;font-weight:normal;font-size:5.64444447px;line-height:1.25;font-family:sans-serif;letter-spacing:0px;word-spacing:0px;fill:#000000;fill-opacity:1;stroke:none;stroke-width:0.26458332"
       x="38.581646"
       y="256.9549"
       id="text92"><tspan
         sodipodi:role="line"
         id="tspan90"
         x="38.581646"
         y="256.9549"
         style="stroke-width:0.26458332">$\epsilon$</tspan></text>
    <text
       xml:space="preserve"
       style="font-style:normal;font-weight:normal;font-size:5.64444447px;line-height:1.25;font-family:sans-serif;letter-spacing:0px;word-spacing:0px;fill:#000000;fill-opacity:1;stroke:none;stroke-width:0.26458332"
       x="65.72184"
       y="256.55579"
       id="text96"><tspan
         sodipodi:role="line"
         id="tspan94"
         x="65.72184"
         y="256.55579"
         style="stroke-width:0.26458332">$w_1$</tspan></text>
    <text
       xml:space="preserve"
       style="font-style:normal;font-weight:normal;font-size:5.64444447px;line-height:1.25;font-family:sans-serif;letter-spacing:0px;word-spacing:0px;fill:#000000;fill-opacity:1;stroke:none;stroke-width:0.26458332"
       x="94.458511"
       y="257.08795"
       id="text100"><tspan
         sodipodi:role="line"
         id="tspan98"
         x="94.458511"
         y="262.08194"
         style="stroke-width:0.26458332" /></text>
    <text
       xml:space="preserve"
       style="font-style:normal;font-weight:normal;font-size:5.64444447px;line-height:1.25;font-family:sans-serif;letter-spacing:0px;word-spacing:0px;fill:#000000;fill-opacity:1;stroke:none;stroke-width:0.26458332"
       x="93.793312"
       y="256.9549"
       id="text104"><tspan
         sodipodi:role="line"
         id="tspan102"
         x="93.793312"
         y="261.94891"
         style="stroke-width:0.26458332" /></text>
    <text
       xml:space="preserve"
       style="font-style:normal;font-weight:normal;font-size:5.64444447px;line-height:1.25;font-family:sans-serif;letter-spacing:0px;word-spacing:0px;fill:#000000;fill-opacity:1;stroke:none;stroke-width:0.26458332"
       x="92.86203"
       y="255.6245"
       id="text108"><tspan
         sodipodi:role="line"
         id="tspan106"
         x="92.86203"
         y="255.6245"
         style="stroke-width:0.26458332">$w_2$</tspan></text>
    <text
       xml:space="preserve"
       style="font-style:normal;font-weight:normal;font-size:5.64444447px;line-height:1.25;font-family:sans-serif;letter-spacing:0px;word-spacing:0px;fill:#000000;fill-opacity:1;stroke:none;stroke-width:0.26458332"
       x="170.15836"
       y="253.49586"
       id="text112"><tspan
         sodipodi:role="line"
         id="tspan110"
         x="170.15836"
         y="253.49586"
         style="stroke-width:0.26458332">$w_{n-1}$</tspan></text>
    <text
       xml:space="preserve"
       style="font-style:normal;font-weight:normal;font-size:5.64444447px;line-height:1.25;font-family:sans-serif;letter-spacing:0px;word-spacing:0px;fill:#000000;fill-opacity:1;stroke:none;stroke-width:0.26458332"
       x="196.7664"
       y="252.69763"
       id="text116"><tspan
         sodipodi:role="line"
         id="tspan114"
         x="196.7664"
         y="252.69763"
         style="stroke-width:0.26458332">$w_n$</tspan></text>
    <text
       xml:space="preserve"
       style="font-style:normal;font-weight:normal;font-size:5.64444447px;line-height:1.25;font-family:sans-serif;letter-spacing:0px;word-spacing:0px;fill:#000000;fill-opacity:1;stroke:none;stroke-width:0.26458332"
       x="52.491524"
       y="251.11633"
       id="text96-5"><tspan
         sodipodi:role="line"
         id="tspan94-6"
         x="52.491524"
         y="251.11633"
         style="stroke-width:0.26458332">$w_1$</tspan></text>
    <text
       xml:space="preserve"
       style="font-style:normal;font-weight:normal;font-size:5.64444447px;line-height:1.25;font-family:sans-serif;letter-spacing:0px;word-spacing:0px;fill:#000000;fill-opacity:1;stroke:none;stroke-width:0.26458332"
       x="80.69603"
       y="252.04762"
       id="text108-2"><tspan
         sodipodi:role="line"
         id="tspan106-9"
         x="80.69603"
         y="252.04762"
         style="stroke-width:0.26458332">$w_2$</tspan></text>
    <text
       xml:space="preserve"
       style="font-style:normal;font-weight:normal;font-size:5.64444447px;line-height:1.25;font-family:sans-serif;letter-spacing:0px;word-spacing:0px;fill:#000000;fill-opacity:1;stroke:none;stroke-width:0.26458332"
       x="152.1263"
       y="247.65729"
       id="text112-1"><tspan
         sodipodi:role="line"
         id="tspan110-2"
         x="152.1263"
         y="247.65729"
         style="stroke-width:0.26458332">$w_{n-1}$</tspan></text>
    <text
       xml:space="preserve"
       style="font-style:normal;font-weight:normal;font-size:5.64444447px;line-height:1.25;font-family:sans-serif;letter-spacing:0px;word-spacing:0px;fill:#000000;fill-opacity:1;stroke:none;stroke-width:0.26458332"
       x="184.47426"
       y="247.6573"
       id="text116-7"><tspan
         sodipodi:role="line"
         id="tspan114-0"
         x="184.47426"
         y="247.6573"
         style="stroke-width:0.26458332">$w_n$</tspan></text>
    <text
       xml:space="preserve"
       style="font-style:normal;font-weight:normal;font-size:5.64444447px;line-height:1.25;font-family:sans-serif;letter-spacing:0px;word-spacing:0px;fill:#000000;fill-opacity:1;stroke:none;stroke-width:0.26458332"
       x="64.06601"
       y="229.1647"
       id="text96-5-9"><tspan
         sodipodi:role="line"
         id="tspan94-6-3"
         x="64.06601"
         y="229.1647"
         style="stroke-width:0.26458332">$\ne w_1$</tspan></text>
    <text
       xml:space="preserve"
       style="font-style:normal;font-weight:normal;font-size:5.64444447px;line-height:1.25;font-family:sans-serif;letter-spacing:0px;word-spacing:0px;fill:#000000;fill-opacity:1;stroke:none;stroke-width:0.26458332"
       x="75.241386"
       y="238.34448"
       id="text108-2-6"><tspan
         sodipodi:role="line"
         id="tspan106-9-0"
         x="75.241386"
         y="238.34448"
         style="stroke-width:0.26458332">$\ne w_2$</tspan></text>
    <text
       xml:space="preserve"
       style="font-style:normal;font-weight:normal;font-size:5.64444447px;line-height:1.25;font-family:sans-serif;letter-spacing:0px;word-spacing:0px;fill:#000000;fill-opacity:1;stroke:none;stroke-width:0.26458332"
       x="131.52426"
       y="237.67928"
       id="text116-7-6"><tspan
         sodipodi:role="line"
         id="tspan114-0-2"
         x="131.52426"
         y="237.67928"
         style="stroke-width:0.26458332">$\ne w_n$</tspan></text>
    <text
       xml:space="preserve"
       style="font-style:normal;font-weight:normal;font-size:5.64444447px;line-height:1.25;font-family:sans-serif;letter-spacing:0px;word-spacing:0px;fill:#000000;fill-opacity:1;stroke:none;stroke-width:0.26458332"
       x="172.15396"
       y="230.0808"
       id="text246"><tspan
         sodipodi:role="line"
         id="tspan244"
         x="172.15396"
         y="230.0808"
         style="stroke-width:0.26458332">$anything$</tspan></text>
    <text
       xml:space="preserve"
       style="font-style:normal;font-weight:normal;font-size:5.64444447px;line-height:1.25;font-family:sans-serif;letter-spacing:0px;word-spacing:0px;fill:#000000;fill-opacity:1;stroke:none;stroke-width:0.26458332"
       x="120.80047"
       y="207.46397"
       id="text250"><tspan
         sodipodi:role="line"
         id="tspan248"
         x="120.80047"
         y="207.46397"
         style="stroke-width:0.26458332">$anything$</tspan></text>
  </g>
</svg>
