<?xml version="1.0" encoding="UTF-8" standalone="no"?>
<!-- Created with Inkscape (http://www.inkscape.org/) -->

<svg
   xmlns:dc="http://purl.org/dc/elements/1.1/"
   xmlns:cc="http://creativecommons.org/ns#"
   xmlns:rdf="http://www.w3.org/1999/02/22-rdf-syntax-ns#"
   xmlns:svg="http://www.w3.org/2000/svg"
   xmlns="http://www.w3.org/2000/svg"
   xmlns:sodipodi="http://sodipodi.sourceforge.net/DTD/sodipodi-0.dtd"
   xmlns:inkscape="http://www.inkscape.org/namespaces/inkscape"
   width="240mm"
   height="120mm"
   viewBox="0 0 240 120"
   version="1.1"
   id="svg8"
   inkscape:version="0.92.5 (2060ec1f9f, 2020-04-08)"
   sodipodi:docname="x.svg">
  <defs
     id="defs2" />
  <sodipodi:namedview
     id="base"
     pagecolor="#ffffff"
     bordercolor="#666666"
     borderopacity="1.0"
     inkscape:pageopacity="0.0"
     inkscape:pageshadow="2"
     inkscape:zoom="0.99437388"
     inkscape:cx="284.27627"
     inkscape:cy="182.72055"
     inkscape:document-units="mm"
     inkscape:current-layer="layer1"
     showgrid="false"
     showborder="true"
     width="200mm"
     showguides="true"
     inkscape:guide-bbox="true"
     inkscape:window-width="1848"
     inkscape:window-height="1016"
     inkscape:window-x="72"
     inkscape:window-y="27"
     inkscape:window-maximized="1">
    <inkscape:grid
       type="xygrid"
       id="grid815"
       units="mm"
       spacingx="10"
       spacingy="10"
       empspacing="4"
       dotted="false" />
  </sodipodi:namedview>
  <metadata
     id="metadata5">
    <rdf:RDF>
      <cc:Work
         rdf:about="">
        <dc:format>image/svg+xml</dc:format>
        <dc:type
           rdf:resource="http://purl.org/dc/dcmitype/StillImage" />
        <dc:title />
      </cc:Work>
    </rdf:RDF>
  </metadata>
  <g
     inkscape:label="Layer 1"
     inkscape:groupmode="layer"
     id="layer1"
     transform="translate(0,-177)">
    <ellipse
       style="opacity:1;fill:#1a1a1a;fill-opacity:0;stroke:#000000;stroke-width:0.26499999;stroke-miterlimit:4;stroke-dasharray:none;stroke-opacity:1"
       id="path8"
       cx="41.774612"
       cy="230.34688"
       rx="6.6520081"
       ry="7.3172092" />
    <ellipse
       style="opacity:1;fill:#1a1a1a;fill-opacity:0;stroke:#000000;stroke-width:0.26499999;stroke-miterlimit:4;stroke-dasharray:none;stroke-opacity:1"
       id="path8-3"
       cx="84.347466"
       cy="201.74324"
       rx="6.6520085"
       ry="7.3172092" />
    <ellipse
       style="opacity:1;fill:#1a1a1a;fill-opacity:0;stroke:#000000;stroke-width:0.26499999;stroke-miterlimit:4;stroke-dasharray:none;stroke-opacity:1"
       id="path8-6"
       cx="94.192436"
       cy="242.45354"
       rx="6.6520085"
       ry="7.3172092" />
    <path
       style="fill:none;stroke:#000000;stroke-width:0.26458332px;stroke-linecap:butt;stroke-linejoin:miter;stroke-opacity:1"
       d="m 45.765817,223.29575 c 0.677336,-9.11429 9.153909,-14.84753 17.29522,-17.5613 3.333977,-1.11133 11.948787,1.28074 10.377133,-1.86257 -1.545482,-3.09096 -9.26225,-2.39472 -8.78065,-2.39472 10.247645,0 9.642609,0.8357 5.055525,7.71633"
       id="path31"
       inkscape:connector-curvature="0" />
    <path
       style="fill:none;stroke:#000000;stroke-width:0.26458332px;stroke-linecap:butt;stroke-linejoin:miter;stroke-opacity:1"
       d="m 87.54043,206.26661 c 4.088669,-8.5686 7.716329,26.99063 7.716329,23.14899 0,-0.62402 -2.547432,-7.29755 -3.192965,-6.65201 -0.357058,0.35705 0.481544,19.00559 6.918089,4.52336"
       id="path33"
       inkscape:connector-curvature="0" />
    <path
       style="fill:none;stroke:#000000;stroke-width:0.26458332px;stroke-linecap:butt;stroke-linejoin:miter;stroke-opacity:1"
       d="m 86.210028,245.11434 c -9.705771,5.58802 -19.482506,8.52744 -30.067078,3.9912 -5.967092,-2.55732 -10.963299,-11.12137 -11.175375,-10.90929 -0.766636,0.76663 2.36375,8.24849 1.862563,8.24849 -1.687507,0 0.197514,-3.43295 -0.266081,-5.05553 -0.363558,-1.27246 -3.546922,-10.37591 -0.532159,-5.85377"
       id="path35"
       inkscape:connector-curvature="0" />
    <path
       style="fill:none;stroke:#000000;stroke-width:0.26458332px;stroke-linecap:butt;stroke-linejoin:miter;stroke-opacity:1"
       d="m 11.175374,232.60856 c 1.559873,0.48604 25.809793,1.21755 25.809793,0.79824 0,-1.16826 -8.756327,-7.20849 -9.578893,-6.38593 -0.952342,0.95234 7.20036,4.39842 7.98241,4.78945 2.238661,1.11933 -1.843299,5.68701 -2.394722,6.65201"
       id="path37"
       inkscape:connector-curvature="0" />
  </g>
</svg>
